<svg xmlns="http://www.w3.org/2000/svg" xmlns:xlink="http://www.w3.org/1999/xlink" width="64" zoomAndPan="magnify" viewBox="0 0 48 48" height="64" preserveAspectRatio="xMidYMid meet" version="1.2"><defs><clipPath id="dee6ac0e12"><path d="M 0.488281 4.703125 L 47.507812 4.703125 L 47.507812 41.4375 L 0.488281 41.4375 Z M 0.488281 4.703125 "/></clipPath><clipPath id="008d585333"><path d="M 0.488281 11 L 47.507812 11 L 47.507812 41.4375 L 0.488281 41.4375 Z M 0.488281 11 "/></clipPath><clipPath id="7249588984"><path d="M 5 4.703125 L 43 4.703125 L 43 41.4375 L 5 41.4375 Z M 5 4.703125 "/></clipPath></defs><g id="1b6f2ab615"><g clip-rule="nonzero" clip-path="url(#dee6ac0e12)"><path style=" stroke:none;fill-rule:nonzero;fill:#f2ae2f;fill-opacity:1;" d="M 46.710938 12.945312 L 46.710938 13.042969 L 46.804688 13.042969 L 46.804688 16.171875 L 46.710938 16.171875 L 46.710938 18.046875 L 46.804688 18.046875 L 46.804688 18.9375 L 46.710938 18.9375 L 46.710938 19.65625 L 46.804688 19.65625 L 46.804688 36.972656 L 46.710938 36.972656 L 46.710938 37.070312 L 47.40625 37.070312 L 47.40625 41.03125 L 42.371094 41.03125 L 42.371094 41.339844 L 5.628906 41.339844 L 5.628906 41.03125 L 0.59375 41.03125 L 0.59375 37.070312 L 1.289062 37.070312 L 1.289062 36.972656 L 1.195312 36.972656 L 1.195312 19.65625 L 1.289062 19.65625 L 1.289062 18.9375 L 1.195312 18.9375 L 1.195312 18.046875 L 1.289062 18.046875 L 1.289062 16.171875 L 1.195312 16.171875 L 1.195312 13.042969 L 1.289062 13.042969 L 1.289062 12.945312 L 0.59375 12.945312 L 0.59375 11.980469 L 11.539062 11.980469 L 24 4.8125 L 36.460938 11.980469 L 47.40625 11.980469 L 47.40625 12.945312 Z M 46.710938 12.945312 "/></g><g clip-rule="nonzero" clip-path="url(#008d585333)"><path style=" stroke:none;fill-rule:nonzero;fill:#f2a7c8;fill-opacity:1;" d="M 1.195312 36.972656 L 47.5 36.972656 L 47.5 41.125 L 0.5 41.125 L 0.5 36.972656 Z M 46.804688 16.171875 L 1.195312 16.171875 L 1.195312 17.328125 L 46.804688 17.328125 Z M 40.878906 22.835938 L 40.878906 21.941406 C 40.898438 21.941406 40.921875 21.941406 40.941406 21.9375 C 41.25 21.886719 41.488281 21.605469 41.488281 21.265625 C 41.488281 20.886719 41.199219 20.582031 40.847656 20.582031 L 37.792969 20.582031 C 37.4375 20.582031 37.148438 20.886719 37.148438 21.265625 C 37.148438 21.605469 37.386719 21.886719 37.695312 21.9375 C 37.71875 21.941406 37.738281 21.941406 37.761719 21.941406 L 37.761719 22.835938 Z M 32.65625 22.835938 L 32.65625 21.941406 C 32.675781 21.941406 32.699219 21.941406 32.71875 21.9375 C 32.730469 21.9375 32.742188 21.933594 32.753906 21.933594 C 33.046875 21.867188 33.265625 21.59375 33.265625 21.265625 C 33.265625 21.050781 33.171875 20.859375 33.027344 20.734375 C 32.917969 20.640625 32.777344 20.582031 32.625 20.582031 L 29.570312 20.582031 C 29.4375 20.582031 29.3125 20.625 29.210938 20.699219 C 29.175781 20.722656 29.144531 20.75 29.117188 20.78125 C 29.101562 20.796875 29.085938 20.8125 29.074219 20.832031 C 29.054688 20.859375 29.035156 20.886719 29.015625 20.917969 C 28.960938 21.019531 28.929688 21.136719 28.929688 21.265625 C 28.929688 21.292969 28.929688 21.316406 28.933594 21.34375 C 28.964844 21.648438 29.1875 21.890625 29.472656 21.9375 C 29.496094 21.941406 29.515625 21.941406 29.539062 21.941406 L 29.539062 22.835938 Z M 32.632812 11.886719 L 0.5 11.886719 L 0.5 13.042969 L 47.5 13.042969 L 47.5 11.886719 Z M 10.851562 21.265625 C 10.851562 20.886719 10.5625 20.582031 10.207031 20.582031 L 7.152344 20.582031 C 6.824219 20.582031 6.554688 20.84375 6.515625 21.183594 C 6.515625 21.210938 6.511719 21.238281 6.511719 21.265625 C 6.511719 21.605469 6.75 21.886719 7.058594 21.9375 C 7.078125 21.941406 7.101562 21.941406 7.121094 21.941406 L 7.121094 22.835938 L 10.238281 22.835938 L 10.238281 21.941406 C 10.261719 21.941406 10.28125 21.941406 10.304688 21.9375 C 10.613281 21.886719 10.851562 21.605469 10.851562 21.265625 Z M 18.460938 22.835938 L 18.460938 21.941406 C 18.484375 21.941406 18.503906 21.941406 18.527344 21.9375 C 18.8125 21.890625 19.035156 21.648438 19.066406 21.34375 C 19.070312 21.316406 19.070312 21.292969 19.070312 21.265625 C 19.070312 21.121094 19.03125 20.992188 18.960938 20.882812 C 18.941406 20.847656 18.914062 20.8125 18.882812 20.78125 C 18.855469 20.75 18.824219 20.722656 18.789062 20.699219 C 18.6875 20.625 18.5625 20.582031 18.429688 20.582031 L 15.375 20.582031 C 15.230469 20.582031 15.09375 20.636719 14.988281 20.722656 C 14.832031 20.847656 14.734375 21.042969 14.734375 21.265625 C 14.734375 21.605469 14.972656 21.886719 15.28125 21.9375 C 15.289062 21.9375 15.300781 21.941406 15.308594 21.941406 C 15.320312 21.945312 15.332031 21.945312 15.34375 21.945312 L 15.34375 22.835938 Z M 18.460938 22.835938 "/></g><g clip-rule="nonzero" clip-path="url(#7249588984)"><path style=" stroke:none;fill-rule:nonzero;fill:#f4f1ec;fill-opacity:1;" d="M 40.121094 16.171875 L 7.878906 16.171875 L 7.878906 13.980469 L 9.507812 13.042969 L 11.515625 11.886719 L 24 4.703125 L 36.484375 11.886719 L 38.492188 13.042969 L 40.121094 13.980469 Z M 41.445312 39.949219 L 41.445312 38.460938 L 40.03125 38.460938 L 40.03125 36.972656 L 7.96875 36.972656 L 7.96875 38.460938 L 6.554688 38.460938 L 6.554688 39.949219 L 5.535156 39.949219 L 5.535156 41.4375 L 42.464844 41.4375 L 42.464844 39.949219 Z M 32.539062 35.574219 L 32.539062 22.957031 L 29.65625 22.957031 L 29.65625 35.574219 Z M 37.878906 35.574219 L 40.761719 35.574219 L 40.761719 22.957031 L 37.878906 22.957031 Z M 18.34375 35.574219 L 18.34375 22.957031 L 15.460938 22.957031 L 15.460938 35.574219 Z M 10.121094 22.957031 L 7.238281 22.957031 L 7.238281 35.574219 L 10.121094 35.574219 Z M 10.121094 22.957031 "/></g><path style=" stroke:none;fill-rule:nonzero;fill:#72b0ff;fill-opacity:1;" d="M 41.929688 28.652344 L 44.929688 28.652344 L 44.929688 34.25 L 41.929688 34.25 Z M 41.929688 26.816406 L 44.929688 26.816406 L 44.929688 21.21875 L 41.929688 21.21875 Z M 33.707031 34.25 L 36.707031 34.25 L 36.707031 28.652344 L 33.707031 28.652344 Z M 33.707031 26.816406 L 36.707031 26.816406 L 36.707031 21.21875 L 33.707031 21.21875 Z M 3.070312 34.25 L 6.070312 34.25 L 6.070312 28.652344 L 3.070312 28.652344 Z M 3.070312 26.816406 L 6.070312 26.816406 L 6.070312 21.21875 L 3.070312 21.21875 Z M 11.292969 34.25 L 14.292969 34.25 L 14.292969 28.652344 L 11.292969 28.652344 Z M 11.292969 26.816406 L 14.292969 26.816406 L 14.292969 21.21875 L 11.292969 21.21875 Z M 25.5 21.21875 L 22.5 21.21875 L 22.5 26.816406 L 25.5 26.816406 Z M 1.195312 17.328125 L 1.195312 18.046875 L 46.804688 18.046875 L 46.804688 17.328125 Z M 1.195312 19.65625 L 46.804688 19.65625 L 46.804688 18.9375 L 1.195312 18.9375 Z M 24.050781 27.984375 L 24.050781 27.953125 C 24.050781 27.925781 24.027344 27.902344 24 27.902344 C 23.972656 27.902344 23.949219 27.925781 23.949219 27.953125 L 23.949219 27.984375 C 22.261719 28 20.898438 29.382812 20.898438 31.085938 C 20.898438 31.570312 20.898438 33.597656 20.898438 33.597656 L 23.765625 33.597656 L 23.765625 34.796875 L 20.898438 34.796875 L 20.898438 36.914062 L 27.054688 36.914062 L 27.054688 34.796875 L 24.1875 34.796875 L 24.1875 33.597656 L 27.054688 33.597656 C 27.054688 33.597656 27.054688 31.570312 27.054688 31.085938 C 27.054688 29.398438 25.714844 28.023438 24.050781 27.984375 Z M 24.050781 27.984375 "/><path style=" stroke:none;fill-rule:nonzero;fill:#4833da;fill-opacity:1;" d="M 9.078125 15.28125 L 38.921875 15.28125 C 38.953125 15.28125 38.972656 15.257812 38.972656 15.230469 L 38.972656 14.460938 C 38.972656 14.441406 38.964844 14.425781 38.949219 14.417969 L 24.023438 5.828125 C 24.007812 5.820312 23.992188 5.820312 23.976562 5.828125 L 9.050781 14.417969 C 9.035156 14.425781 9.027344 14.441406 9.027344 14.460938 L 9.027344 15.230469 C 9.027344 15.257812 9.046875 15.28125 9.078125 15.28125 Z M 9.128906 14.492188 L 24 5.929688 L 38.871094 14.492188 L 38.871094 15.179688 L 9.128906 15.179688 Z M 8.09375 38.410156 L 39.90625 38.410156 C 39.9375 38.410156 39.957031 38.433594 39.957031 38.460938 C 39.957031 38.488281 39.9375 38.511719 39.90625 38.511719 L 8.09375 38.511719 C 8.0625 38.511719 8.042969 38.488281 8.042969 38.460938 C 8.042969 38.433594 8.0625 38.410156 8.09375 38.410156 Z M 41.292969 39.949219 C 41.292969 39.976562 41.269531 40 41.242188 40 L 6.757812 40 C 6.730469 40 6.707031 39.976562 6.707031 39.949219 C 6.707031 39.921875 6.730469 39.898438 6.757812 39.898438 L 41.242188 39.898438 C 41.269531 39.898438 41.292969 39.921875 41.292969 39.949219 Z M 20.796875 31.046875 L 20.796875 36.972656 L 27.203125 36.972656 L 27.203125 31.046875 C 27.203125 29.269531 25.773438 27.828125 24.011719 27.828125 L 23.988281 27.828125 C 22.226562 27.828125 20.796875 29.269531 20.796875 31.046875 Z M 24.632812 34.527344 C 24.632812 34.597656 24.578125 34.65625 24.503906 34.65625 C 24.433594 34.65625 24.375 34.597656 24.375 34.527344 L 24.375 33.871094 C 24.375 33.796875 24.433594 33.738281 24.503906 33.738281 C 24.578125 33.738281 24.632812 33.796875 24.632812 33.871094 Z M 24.378906 28.257812 C 25.734375 28.257812 26.832031 29.535156 26.832031 31.113281 L 26.832031 33.457031 L 24.378906 33.457031 C 24.378906 33.457031 24.371094 28.257812 24.378906 28.257812 Z M 23.949219 27.953125 C 23.949219 27.925781 23.972656 27.902344 24 27.902344 C 24.027344 27.902344 24.050781 27.925781 24.050781 27.953125 L 24.050781 36.839844 C 24.050781 36.871094 24.027344 36.890625 24 36.890625 C 23.972656 36.890625 23.949219 36.871094 23.949219 36.839844 Z M 23.625 34.527344 C 23.625 34.597656 23.566406 34.65625 23.496094 34.65625 C 23.421875 34.65625 23.367188 34.597656 23.367188 34.527344 L 23.367188 33.871094 C 23.367188 33.796875 23.421875 33.738281 23.496094 33.738281 C 23.566406 33.738281 23.625 33.796875 23.625 33.871094 Z M 23.621094 28.257812 C 23.628906 28.257812 23.621094 33.457031 23.621094 33.457031 L 21.167969 33.457031 L 21.167969 31.113281 C 21.167969 29.535156 22.265625 28.257812 23.621094 28.257812 Z M 32.707031 19.65625 C 32.714844 19.6875 32.71875 19.714844 32.71875 19.75 L 32.71875 20.234375 C 32.71875 20.425781 32.566406 20.582031 32.375 20.582031 L 29.816406 20.582031 C 29.628906 20.582031 29.472656 20.425781 29.472656 20.234375 L 29.472656 19.75 C 29.472656 19.714844 29.480469 19.6875 29.488281 19.65625 Z M 32.539062 22.957031 L 29.59375 22.957031 C 29.527344 22.957031 29.472656 22.902344 29.472656 22.835938 L 29.472656 21.9375 C 29.503906 21.941406 29.535156 21.945312 29.570312 21.945312 C 29.871094 21.945312 30.125 21.722656 30.191406 21.425781 L 32 21.425781 C 32.070312 21.722656 32.320312 21.945312 32.625 21.945312 C 32.65625 21.945312 32.6875 21.941406 32.71875 21.9375 L 32.71875 22.835938 C 32.71875 22.902344 32.664062 22.957031 32.597656 22.957031 Z M 29.570312 20.921875 C 29.746094 20.921875 29.890625 21.074219 29.890625 21.265625 C 29.890625 21.453125 29.746094 21.605469 29.570312 21.605469 C 29.390625 21.605469 29.25 21.453125 29.25 21.265625 C 29.25 21.074219 29.390625 20.921875 29.570312 20.921875 Z M 32.625 21.605469 C 32.445312 21.605469 32.304688 21.453125 32.304688 21.265625 C 32.304688 21.074219 32.445312 20.921875 32.625 20.921875 C 32.800781 20.921875 32.945312 21.074219 32.945312 21.265625 C 32.945312 21.453125 32.800781 21.605469 32.625 21.605469 Z M 29.152344 36.042969 L 29.367188 36.042969 L 29.367188 35.574219 L 32.828125 35.574219 L 32.828125 36.042969 L 33.042969 36.042969 L 33.042969 36.507812 L 33.265625 36.507812 L 33.265625 36.972656 L 28.929688 36.972656 L 28.929688 36.507812 L 29.152344 36.507812 Z M 30.304688 23.359375 C 30.332031 23.359375 30.355469 23.382812 30.355469 23.410156 L 30.355469 35.148438 C 30.355469 35.175781 30.332031 35.199219 30.304688 35.199219 C 30.277344 35.199219 30.253906 35.175781 30.253906 35.148438 L 30.253906 23.410156 C 30.253906 23.382812 30.277344 23.359375 30.304688 23.359375 Z M 31.097656 23.359375 C 31.125 23.359375 31.148438 23.382812 31.148438 23.410156 L 31.148438 35.148438 C 31.148438 35.175781 31.125 35.199219 31.097656 35.199219 C 31.070312 35.199219 31.046875 35.175781 31.046875 35.148438 L 31.046875 23.410156 C 31.046875 23.382812 31.070312 23.359375 31.097656 23.359375 Z M 31.890625 23.359375 C 31.917969 23.359375 31.941406 23.382812 31.941406 23.410156 L 31.941406 35.148438 C 31.941406 35.175781 31.917969 35.199219 31.890625 35.199219 C 31.863281 35.199219 31.839844 35.175781 31.839844 35.148438 L 31.839844 23.410156 C 31.839844 23.382812 31.863281 23.359375 31.890625 23.359375 Z M 37.710938 19.65625 L 40.929688 19.65625 C 40.9375 19.6875 40.941406 19.714844 40.941406 19.75 L 40.941406 20.234375 C 40.941406 20.425781 40.789062 20.582031 40.597656 20.582031 L 38.039062 20.582031 C 37.847656 20.582031 37.695312 20.425781 37.695312 20.234375 L 37.695312 19.75 C 37.695312 19.714844 37.703125 19.6875 37.710938 19.65625 Z M 40.761719 22.957031 L 37.816406 22.957031 C 37.75 22.957031 37.695312 22.902344 37.695312 22.835938 L 37.695312 21.9375 C 37.726562 21.941406 37.757812 21.945312 37.792969 21.945312 C 38.09375 21.945312 38.347656 21.722656 38.414062 21.425781 L 40.222656 21.425781 C 40.292969 21.722656 40.542969 21.945312 40.847656 21.945312 C 40.878906 21.945312 40.910156 21.941406 40.941406 21.9375 L 40.941406 22.835938 C 40.941406 22.902344 40.886719 22.957031 40.820312 22.957031 Z M 37.792969 21.605469 C 37.613281 21.605469 37.472656 21.453125 37.472656 21.265625 C 37.472656 21.074219 37.613281 20.921875 37.792969 20.921875 C 37.96875 20.921875 38.113281 21.074219 38.113281 21.265625 C 38.113281 21.453125 37.96875 21.605469 37.792969 21.605469 Z M 40.847656 20.921875 C 41.023438 20.921875 41.167969 21.074219 41.167969 21.265625 C 41.167969 21.453125 41.023438 21.605469 40.847656 21.605469 C 40.667969 21.605469 40.527344 21.453125 40.527344 21.265625 C 40.527344 21.074219 40.667969 20.921875 40.847656 20.921875 Z M 41.265625 36.507812 L 41.488281 36.507812 L 41.488281 36.972656 L 37.148438 36.972656 L 37.148438 36.507812 L 37.371094 36.507812 L 37.371094 36.042969 L 37.589844 36.042969 L 37.589844 35.574219 L 41.050781 35.574219 L 41.050781 36.042969 L 41.265625 36.042969 Z M 38.527344 23.359375 C 38.554688 23.359375 38.578125 23.382812 38.578125 23.410156 L 38.578125 35.148438 C 38.578125 35.175781 38.554688 35.199219 38.527344 35.199219 C 38.496094 35.199219 38.476562 35.175781 38.476562 35.148438 L 38.476562 23.410156 C 38.476562 23.382812 38.496094 23.359375 38.527344 23.359375 Z M 39.320312 23.359375 C 39.347656 23.359375 39.371094 23.382812 39.371094 23.410156 L 39.371094 35.148438 C 39.371094 35.175781 39.347656 35.199219 39.320312 35.199219 C 39.289062 35.199219 39.269531 35.175781 39.269531 35.148438 L 39.269531 23.410156 C 39.269531 23.382812 39.289062 23.359375 39.320312 23.359375 Z M 40.113281 23.359375 C 40.140625 23.359375 40.164062 23.382812 40.164062 23.410156 L 40.164062 35.148438 C 40.164062 35.175781 40.140625 35.199219 40.113281 35.199219 C 40.082031 35.199219 40.0625 35.175781 40.0625 35.148438 L 40.0625 23.410156 C 40.0625 23.382812 40.082031 23.359375 40.113281 23.359375 Z M 42.132812 32.527344 L 44.726562 32.527344 L 44.726562 33.964844 L 42.132812 33.964844 Z M 42.132812 28.9375 L 44.726562 28.9375 L 44.726562 32.242188 L 42.132812 32.242188 Z M 44.726562 21.503906 L 44.726562 24.808594 L 42.132812 24.808594 L 42.132812 21.503906 Z M 42.132812 25.09375 L 44.726562 25.09375 L 44.726562 26.53125 L 42.132812 26.53125 Z M 33.910156 28.9375 L 36.503906 28.9375 L 36.503906 32.242188 L 33.910156 32.242188 Z M 33.910156 32.527344 L 36.503906 32.527344 L 36.503906 33.964844 L 33.910156 33.964844 Z M 33.910156 21.503906 L 36.503906 21.503906 L 36.503906 24.808594 L 33.910156 24.808594 Z M 36.503906 26.53125 L 33.910156 26.53125 L 33.910156 25.09375 L 36.503906 25.09375 Z M 18.511719 19.65625 C 18.519531 19.6875 18.527344 19.714844 18.527344 19.75 L 18.527344 20.234375 C 18.527344 20.425781 18.371094 20.582031 18.183594 20.582031 L 15.625 20.582031 C 15.433594 20.582031 15.28125 20.425781 15.28125 20.234375 L 15.28125 19.75 C 15.28125 19.714844 15.285156 19.6875 15.292969 19.65625 Z M 18.34375 22.957031 L 15.402344 22.957031 C 15.335938 22.957031 15.28125 22.902344 15.28125 22.835938 L 15.28125 21.9375 C 15.289062 21.9375 15.300781 21.941406 15.308594 21.941406 C 15.332031 21.945312 15.355469 21.945312 15.375 21.945312 C 15.679688 21.945312 15.929688 21.722656 16 21.425781 L 17.808594 21.425781 C 17.875 21.722656 18.128906 21.945312 18.429688 21.945312 C 18.464844 21.945312 18.496094 21.941406 18.527344 21.9375 L 18.527344 22.835938 C 18.527344 22.902344 18.472656 22.957031 18.40625 22.957031 Z M 18.429688 21.605469 C 18.253906 21.605469 18.109375 21.453125 18.109375 21.265625 C 18.109375 21.074219 18.253906 20.921875 18.429688 20.921875 C 18.609375 20.921875 18.75 21.074219 18.75 21.265625 C 18.75 21.453125 18.609375 21.605469 18.429688 21.605469 Z M 15.375 20.921875 C 15.554688 20.921875 15.695312 21.074219 15.695312 21.265625 C 15.695312 21.453125 15.554688 21.605469 15.375 21.605469 C 15.199219 21.605469 15.054688 21.453125 15.054688 21.265625 C 15.054688 21.074219 15.199219 20.921875 15.375 20.921875 Z M 14.957031 36.042969 L 15.171875 36.042969 L 15.171875 35.574219 L 18.632812 35.574219 L 18.632812 36.042969 L 18.847656 36.042969 L 18.847656 36.507812 L 19.070312 36.507812 L 19.070312 36.972656 L 14.734375 36.972656 L 14.734375 36.507812 L 14.957031 36.507812 Z M 17.695312 23.359375 C 17.722656 23.359375 17.746094 23.382812 17.746094 23.410156 L 17.746094 35.148438 C 17.746094 35.175781 17.722656 35.199219 17.695312 35.199219 C 17.667969 35.199219 17.644531 35.175781 17.644531 35.148438 L 17.644531 23.410156 C 17.644531 23.382812 17.667969 23.359375 17.695312 23.359375 Z M 16.902344 23.359375 C 16.929688 23.359375 16.953125 23.382812 16.953125 23.410156 L 16.953125 35.148438 C 16.953125 35.175781 16.929688 35.199219 16.902344 35.199219 C 16.875 35.199219 16.851562 35.175781 16.851562 35.148438 L 16.851562 23.410156 C 16.851562 23.382812 16.875 23.359375 16.902344 23.359375 Z M 16.109375 23.359375 C 16.136719 23.359375 16.160156 23.382812 16.160156 23.410156 L 16.160156 35.148438 C 16.160156 35.175781 16.136719 35.199219 16.109375 35.199219 C 16.082031 35.199219 16.058594 35.175781 16.058594 35.148438 L 16.058594 23.410156 C 16.058594 23.382812 16.082031 23.359375 16.109375 23.359375 Z M 7.058594 20.234375 L 7.058594 19.75 C 7.058594 19.714844 7.0625 19.6875 7.070312 19.65625 L 10.289062 19.65625 C 10.296875 19.6875 10.304688 19.714844 10.304688 19.75 L 10.304688 20.234375 C 10.304688 20.425781 10.152344 20.582031 9.960938 20.582031 L 7.402344 20.582031 C 7.210938 20.582031 7.058594 20.425781 7.058594 20.234375 Z M 10.121094 22.957031 L 7.179688 22.957031 C 7.113281 22.957031 7.058594 22.902344 7.058594 22.835938 L 7.058594 21.9375 C 7.089844 21.941406 7.121094 21.945312 7.152344 21.945312 C 7.457031 21.945312 7.707031 21.722656 7.777344 21.425781 L 9.585938 21.425781 C 9.652344 21.722656 9.90625 21.945312 10.207031 21.945312 C 10.242188 21.945312 10.273438 21.941406 10.304688 21.9375 L 10.304688 22.835938 C 10.304688 22.902344 10.25 22.957031 10.183594 22.957031 Z M 10.207031 21.605469 C 10.03125 21.605469 9.886719 21.453125 9.886719 21.265625 C 9.886719 21.074219 10.03125 20.921875 10.207031 20.921875 C 10.386719 20.921875 10.527344 21.074219 10.527344 21.265625 C 10.527344 21.453125 10.386719 21.605469 10.207031 21.605469 Z M 6.832031 21.265625 C 6.832031 21.074219 6.976562 20.921875 7.152344 20.921875 C 7.332031 20.921875 7.472656 21.074219 7.472656 21.265625 C 7.472656 21.453125 7.332031 21.605469 7.152344 21.605469 C 6.976562 21.605469 6.832031 21.453125 6.832031 21.265625 Z M 7.96875 36.972656 L 6.511719 36.972656 L 6.511719 36.507812 L 6.734375 36.507812 L 6.734375 36.042969 L 6.949219 36.042969 L 6.949219 35.574219 L 10.410156 35.574219 L 10.410156 36.042969 L 10.628906 36.042969 L 10.628906 36.507812 L 10.851562 36.507812 L 10.851562 36.972656 Z M 9.472656 23.359375 C 9.503906 23.359375 9.523438 23.382812 9.523438 23.410156 L 9.523438 35.148438 C 9.523438 35.175781 9.503906 35.199219 9.472656 35.199219 C 9.445312 35.199219 9.421875 35.175781 9.421875 35.148438 L 9.421875 23.410156 C 9.421875 23.382812 9.445312 23.359375 9.472656 23.359375 Z M 8.679688 23.359375 C 8.710938 23.359375 8.730469 23.382812 8.730469 23.410156 L 8.730469 35.148438 C 8.730469 35.175781 8.710938 35.199219 8.679688 35.199219 C 8.652344 35.199219 8.628906 35.175781 8.628906 35.148438 L 8.628906 23.410156 C 8.628906 23.382812 8.652344 23.359375 8.679688 23.359375 Z M 7.886719 23.359375 C 7.917969 23.359375 7.9375 23.382812 7.9375 23.410156 L 7.9375 35.148438 C 7.9375 35.175781 7.917969 35.199219 7.886719 35.199219 C 7.859375 35.199219 7.835938 35.175781 7.835938 35.148438 L 7.835938 23.410156 C 7.835938 23.382812 7.859375 23.359375 7.886719 23.359375 Z M 3.273438 32.527344 L 5.867188 32.527344 L 5.867188 33.964844 L 3.273438 33.964844 Z M 3.273438 28.9375 L 5.867188 28.9375 L 5.867188 32.242188 L 3.273438 32.242188 Z M 3.273438 25.09375 L 5.867188 25.09375 L 5.867188 26.53125 L 3.273438 26.53125 Z M 3.273438 21.503906 L 5.867188 21.503906 L 5.867188 24.808594 L 3.273438 24.808594 Z M 11.496094 28.9375 L 14.089844 28.9375 L 14.089844 32.242188 L 11.496094 32.242188 Z M 11.496094 32.527344 L 14.089844 32.527344 L 14.089844 33.964844 L 11.496094 33.964844 Z M 14.089844 24.808594 L 11.496094 24.808594 L 11.496094 21.503906 L 14.089844 21.503906 Z M 11.496094 25.09375 L 14.089844 25.09375 L 14.089844 26.53125 L 11.496094 26.53125 Z M 25.296875 24.808594 L 22.703125 24.808594 L 22.703125 21.503906 L 25.296875 21.503906 Z M 22.703125 25.09375 L 25.296875 25.09375 L 25.296875 26.53125 L 22.703125 26.53125 Z M 19.050781 12.648438 C 19.199219 12.574219 19.3125 12.476562 19.386719 12.355469 C 19.460938 12.234375 19.5 12.101562 19.5 11.964844 C 19.5 11.816406 19.457031 11.671875 19.375 11.539062 C 19.289062 11.402344 19.171875 11.300781 19.027344 11.234375 C 18.878906 11.171875 18.679688 11.136719 18.4375 11.136719 L 17.234375 11.136719 L 17.234375 14.371094 L 18.457031 14.371094 C 18.660156 14.371094 18.832031 14.351562 18.972656 14.316406 C 19.113281 14.28125 19.230469 14.226562 19.324219 14.15625 C 19.417969 14.085938 19.496094 13.984375 19.558594 13.855469 C 19.621094 13.726562 19.652344 13.585938 19.652344 13.433594 C 19.652344 13.246094 19.601562 13.082031 19.496094 12.941406 C 19.394531 12.804688 19.246094 12.707031 19.050781 12.648438 Z M 17.660156 11.519531 L 18.300781 11.519531 C 18.527344 11.519531 18.691406 11.535156 18.785156 11.5625 C 18.882812 11.59375 18.953125 11.648438 19.003906 11.730469 C 19.054688 11.8125 19.082031 11.90625 19.082031 12.015625 C 19.082031 12.128906 19.054688 12.222656 19 12.296875 C 18.945312 12.371094 18.863281 12.425781 18.753906 12.457031 C 18.675781 12.484375 18.539062 12.496094 18.351562 12.496094 L 17.660156 12.496094 Z M 19.152344 13.703125 C 19.109375 13.785156 19.054688 13.84375 18.988281 13.886719 C 18.925781 13.925781 18.84375 13.957031 18.746094 13.972656 C 18.691406 13.984375 18.59375 13.988281 18.457031 13.988281 L 17.660156 13.988281 L 17.660156 12.878906 L 18.398438 12.878906 C 18.605469 12.878906 18.761719 12.894531 18.867188 12.929688 C 18.976562 12.96875 19.0625 13.03125 19.121094 13.117188 C 19.183594 13.207031 19.214844 13.3125 19.214844 13.433594 C 19.214844 13.535156 19.195312 13.625 19.152344 13.703125 Z M 21.675781 11.136719 L 20.445312 14.371094 L 20.894531 14.371094 L 21.246094 13.390625 L 22.585938 13.390625 L 22.960938 14.371094 L 23.445312 14.371094 L 22.132812 11.136719 Z M 21.371094 13.042969 L 21.722656 12.09375 C 21.796875 11.890625 21.851562 11.683594 21.894531 11.476562 C 21.945312 11.652344 22.019531 11.875 22.121094 12.148438 L 22.457031 13.042969 Z M 26.457031 11.136719 L 26.863281 11.136719 L 26.863281 14.371094 L 26.425781 14.371094 L 24.746094 11.828125 L 24.746094 14.371094 L 24.335938 14.371094 L 24.335938 11.136719 L 24.773438 11.136719 L 26.457031 13.675781 Z M 29.363281 12.445312 L 30.765625 14.371094 L 30.207031 14.371094 L 29.066406 12.734375 L 28.539062 13.25 L 28.539062 14.371094 L 28.117188 14.371094 L 28.117188 11.136719 L 28.539062 11.136719 L 28.539062 12.742188 L 30.132812 11.136719 L 30.707031 11.136719 Z M 29.363281 12.445312 "/></g></svg>