<svg xmlns="http://www.w3.org/2000/svg" xmlns:xlink="http://www.w3.org/1999/xlink" width="64" zoomAndPan="magnify" viewBox="0 0 48 48" height="64" preserveAspectRatio="xMidYMid meet" version="1.2"><defs><clipPath id="622502083c"><path d="M 0.488281 3 L 47.507812 3 L 47.507812 44.140625 L 0.488281 44.140625 Z M 0.488281 3 "/></clipPath><clipPath id="4f8aad6a4d"><path d="M 42 6 L 42.871094 6 L 42.871094 7 L 42 7 Z M 42 6 "/></clipPath><clipPath id="485636d609"><path d="M 39.933594 5.4375 L 41 5.4375 L 41 7 L 39.933594 7 Z M 39.933594 5.4375 "/></clipPath><clipPath id="f7c850bd9b"><path d="M 40 5.4375 L 41 5.4375 L 41 7 L 40 7 Z M 40 5.4375 "/></clipPath><clipPath id="c367b3495b"><path d="M 40 6 L 41 6 L 41 7.640625 L 40 7.640625 Z M 40 6 "/></clipPath><clipPath id="59b216a9b0"><path d="M 41 7 L 42 7 L 42 7.640625 L 41 7.640625 Z M 41 7 "/></clipPath><clipPath id="d6cfc6ac6a"><path d="M 40 7 L 42 7 L 42 7.640625 L 40 7.640625 Z M 40 7 "/></clipPath><clipPath id="36271eceb3"><path d="M 40 7 L 41 7 L 41 7.640625 L 40 7.640625 Z M 40 7 "/></clipPath><clipPath id="a1d2329be8"><path d="M 41 7 L 42 7 L 42 7.640625 L 41 7.640625 Z M 41 7 "/></clipPath><clipPath id="227eb61136"><path d="M 40 7 L 41 7 L 41 7.640625 L 40 7.640625 Z M 40 7 "/></clipPath><clipPath id="6bc675f4a8"><path d="M 41 7 L 42 7 L 42 7.640625 L 41 7.640625 Z M 41 7 "/></clipPath><clipPath id="920641e50d"><path d="M 41 5.4375 L 42.871094 5.4375 L 42.871094 7.640625 L 41 7.640625 Z M 41 5.4375 "/></clipPath></defs><g id="b73acde420"><path style=" stroke:none;fill-rule:evenodd;fill:#d9d9d9;fill-opacity:1;" d="M 8.164062 22.21875 L 12.246094 22.21875 L 12.535156 25.707031 C 12.613281 26.613281 13.589844 27.140625 14.386719 26.703125 L 17.863281 24.808594 L 19.007812 26.953125 C 19.441406 27.761719 20.199219 28.335938 21.097656 28.523438 L 21.203125 28.546875 L 23.003906 34.066406 L 22.027344 34.066406 C 21.144531 34.066406 20.429688 34.785156 20.429688 35.667969 L 20.429688 39.015625 C 20.429688 39.894531 21.144531 40.613281 22.027344 40.613281 L 27.210938 40.613281 C 28.09375 40.613281 28.808594 39.894531 28.808594 39.015625 L 28.808594 35.667969 C 28.808594 34.785156 28.09375 34.066406 27.210938 34.066406 L 26.234375 34.066406 L 28.035156 28.546875 L 28.140625 28.523438 C 29.039062 28.335938 29.796875 27.761719 30.230469 26.953125 L 31.375 24.808594 L 34.851562 26.703125 C 35.648438 27.140625 36.625 26.613281 36.703125 25.707031 L 36.992188 22.207031 L 37.3125 22.21875 L 41.074219 22.21875 L 41.074219 30.527344 C 41.074219 31.535156 40.636719 32.378906 39.8125 32.957031 C 38.988281 33.535156 38.039062 33.65625 37.09375 33.3125 L 32.664062 31.703125 C 31.847656 31.40625 30.980469 32.011719 30.980469 32.882812 L 30.980469 42.570312 C 30.980469 42.6875 30.882812 42.785156 30.765625 42.785156 L 18.472656 42.785156 C 18.355469 42.785156 18.257812 42.6875 18.257812 42.570312 L 18.257812 32.882812 C 18.257812 32.011719 17.390625 31.40625 16.574219 31.703125 L 12.144531 33.3125 C 11.199219 33.65625 10.25 33.535156 9.425781 32.957031 C 8.601562 32.378906 8.164062 31.535156 8.164062 30.527344 Z M 22.492188 28.492188 L 22.296875 28.542969 L 24.097656 34.066406 L 25.140625 34.066406 L 26.941406 28.542969 L 26.742188 28.492188 C 26.371094 28.402344 24.738281 27.804688 24.617188 27.804688 C 24.515625 27.804688 22.847656 28.402344 22.492188 28.492188 Z M 16.1875 12.921875 C 16.34375 12.09375 16.980469 11.46875 17.808594 11.3125 C 22.054688 10.515625 27.183594 10.515625 31.429688 11.3125 C 32.257812 11.46875 32.894531 12.09375 33.050781 12.921875 L 33.105469 13.207031 C 30.265625 12.542969 27.535156 12.273438 24.617188 12.273438 C 21.703125 12.273438 18.972656 12.542969 16.132812 13.207031 Z M 30.886719 10.160156 C 26.734375 9.480469 21.84375 9.507812 17.707031 10.273438 L 17.484375 10.3125 C 17.484375 10.089844 17.488281 9.378906 17.546875 9.246094 C 17.902344 8.460938 18.359375 7.679688 18.953125 7.054688 C 19.628906 6.34375 21.601562 5.480469 22.574219 5.140625 C 24.777344 4.371094 28.171875 5.355469 29.886719 6.835938 C 30.820312 7.636719 31.066406 9.011719 31.117188 10.195312 Z M 30.886719 10.160156 "/><g clip-rule="nonzero" clip-path="url(#622502083c)"><path style=" stroke:none;fill-rule:evenodd;fill:#000000;fill-opacity:1;" d="M 21.605469 17.414062 C 21.566406 17.023438 21.855469 16.679688 22.246094 16.644531 C 22.636719 16.609375 22.980469 16.898438 23.015625 17.289062 C 23.09375 18.121094 23.78125 18.75 24.617188 18.75 C 25.457031 18.75 26.144531 18.121094 26.222656 17.289062 C 26.257812 16.898438 26.601562 16.609375 26.992188 16.644531 C 27.382812 16.679688 27.671875 17.023438 27.632812 17.414062 C 27.492188 18.984375 26.195312 20.167969 24.617188 20.167969 C 23.042969 20.167969 21.746094 18.984375 21.605469 17.414062 Z M 39.78125 9.199219 L 39.78125 4.917969 L 44.824219 7.058594 Z M 42.078125 18.445312 L 42.078125 20.203125 C 42.078125 20.636719 41.726562 20.992188 41.292969 20.992188 L 37.3125 20.992188 C 36.875 20.992188 36.523438 20.636719 36.523438 20.203125 L 36.523438 17.773438 C 36.523438 17.339844 36.875 16.984375 37.3125 16.984375 L 40.621094 16.984375 C 41.425781 16.984375 42.078125 17.640625 42.078125 18.445312 Z M 39.703125 32.800781 C 38.925781 33.34375 38.046875 33.460938 37.160156 33.136719 L 32.730469 31.527344 C 31.789062 31.183594 30.792969 31.878906 30.792969 32.882812 L 30.792969 42.570312 C 30.792969 42.582031 30.78125 42.597656 30.765625 42.597656 L 18.472656 42.597656 C 18.457031 42.597656 18.445312 42.582031 18.445312 42.570312 L 18.445312 32.882812 C 18.445312 31.878906 17.449219 31.183594 16.507812 31.527344 L 12.078125 33.136719 C 11.191406 33.460938 10.3125 33.34375 9.535156 32.800781 C 8.761719 32.257812 8.351562 31.472656 8.351562 30.527344 L 8.351562 22.410156 L 12.070312 22.410156 L 12.347656 25.722656 C 12.433594 26.765625 13.558594 27.371094 14.476562 26.871094 L 17.789062 25.066406 L 18.84375 27.042969 C 19.3125 27.925781 20.136719 28.515625 21.058594 28.710938 L 22.742188 33.878906 L 22.027344 33.878906 C 21.042969 33.878906 20.238281 34.679688 20.238281 35.667969 L 20.238281 39.015625 C 20.238281 40 21.042969 40.804688 22.027344 40.804688 L 27.210938 40.804688 C 28.195312 40.804688 29 40 29 39.015625 L 29 35.667969 C 29 34.679688 28.195312 33.878906 27.210938 33.878906 L 26.496094 33.878906 L 28.179688 28.710938 C 29.101562 28.515625 29.921875 27.925781 30.394531 27.042969 L 31.449219 25.066406 L 34.757812 26.871094 C 35.679688 27.371094 36.804688 26.765625 36.890625 25.722656 L 37.167969 22.40625 C 37.214844 22.40625 37.261719 22.410156 37.3125 22.410156 L 40.886719 22.410156 L 40.886719 30.527344 C 40.886719 31.472656 40.476562 32.257812 39.703125 32.800781 Z M 7.433594 18.445312 C 7.433594 17.640625 8.089844 16.984375 8.894531 16.984375 L 12.203125 16.984375 C 12.636719 16.984375 12.992188 17.339844 12.992188 17.773438 L 12.992188 20.203125 C 12.992188 20.636719 12.636719 20.992188 12.203125 20.992188 L 8.222656 20.992188 C 7.789062 20.992188 7.433594 20.636719 7.433594 20.203125 Z M 2.921875 14.464844 L 1.953125 14.464844 C 1.941406 14.464844 1.929688 14.453125 1.929688 14.441406 L 1.929688 6.273438 C 1.929688 6.261719 1.941406 6.25 1.953125 6.25 L 2.921875 6.25 L 6.472656 7.632812 L 6.472656 13.085938 Z M 8.0625 7.855469 L 11.21875 7.855469 C 12.144531 7.855469 12.898438 8.609375 12.898438 9.535156 L 12.898438 11.179688 C 12.898438 12.105469 12.144531 12.859375 11.21875 12.859375 L 7.894531 12.859375 L 7.894531 7.855469 Z M 9.269531 15.566406 L 9.269531 14.28125 L 10.605469 14.28125 L 10.605469 15.566406 Z M 19.847656 13.792969 L 19.847656 16.71875 C 19.847656 19.347656 21.988281 21.488281 24.617188 21.488281 C 27.25 21.488281 29.390625 19.347656 29.390625 16.71875 L 29.390625 13.792969 C 26.292969 13.410156 22.945312 13.410156 19.847656 13.792969 Z M 17.109375 14.820312 L 17.109375 14.25 C 17.535156 14.15625 17.976562 14.074219 18.429688 13.996094 L 18.429688 16.007812 L 18.296875 16.007812 C 17.640625 16.007812 17.109375 15.476562 17.109375 14.820312 Z M 17.722656 9.324219 C 18.117188 8.445312 18.578125 7.722656 19.089844 7.183594 C 19.582031 6.667969 21.175781 5.828125 22.636719 5.316406 C 24.816406 4.554688 28.144531 5.582031 29.765625 6.976562 C 30.332031 7.464844 30.65625 8.167969 30.851562 9.324219 C 30.886719 9.539062 30.910156 9.753906 30.917969 9.972656 C 26.730469 9.289062 21.804688 9.320312 17.671875 10.085938 C 17.671875 9.847656 17.6875 9.59375 17.722656 9.324219 Z M 32.867188 12.957031 C 27.898438 11.796875 21.339844 11.796875 16.371094 12.957031 C 16.511719 12.21875 17.078125 11.640625 17.84375 11.496094 C 22.058594 10.707031 27.179688 10.707031 31.394531 11.496094 C 32.160156 11.640625 32.726562 12.21875 32.867188 12.957031 Z M 30.941406 16.007812 L 30.808594 16.007812 L 30.808594 13.996094 C 31.261719 14.074219 31.703125 14.15625 32.128906 14.25 L 32.128906 14.820312 C 32.128906 15.476562 31.597656 16.007812 30.941406 16.007812 Z M 26.914062 27.261719 C 27.792969 27.554688 28.707031 27.191406 29.144531 26.375 L 30.09375 24.597656 L 28.535156 24.335938 L 25.933594 26.9375 Z M 23.304688 26.9375 L 20.703125 24.335938 L 19.144531 24.597656 L 20.09375 26.375 C 20.53125 27.191406 21.445312 27.554688 22.324219 27.261719 Z M 24.617188 22.910156 C 23.546875 22.910156 22.539062 22.636719 21.660156 22.152344 L 21.660156 23.28125 L 24.617188 26.242188 L 27.578125 23.28125 L 27.578125 22.152344 C 26.699219 22.636719 25.691406 22.910156 24.617188 22.910156 Z M 24.238281 33.878906 L 25 33.878906 L 26.699219 28.675781 C 26.351562 28.59375 24.660156 27.996094 24.617188 27.996094 C 24.589844 27.996094 22.890625 28.585938 22.539062 28.675781 Z M 27.210938 35.296875 L 22.027344 35.296875 C 21.828125 35.296875 21.660156 35.46875 21.660156 35.667969 L 21.660156 39.015625 C 21.660156 39.214844 21.828125 39.382812 22.027344 39.382812 L 27.210938 39.382812 C 27.410156 39.382812 27.578125 39.214844 27.578125 39.015625 L 27.578125 35.667969 C 27.578125 35.46875 27.410156 35.296875 27.210938 35.296875 Z M 46.921875 6.40625 L 39.347656 3.191406 C 38.882812 2.996094 38.363281 3.339844 38.363281 3.847656 L 38.363281 15.566406 L 37.3125 15.566406 C 36.09375 15.566406 35.105469 16.554688 35.105469 17.773438 L 35.105469 20.203125 C 35.105469 20.832031 35.371094 21.398438 35.792969 21.804688 L 35.476562 25.617188 L 35.453125 25.628906 L 31.898438 23.691406 C 31.46875 23.457031 31.0625 23.316406 30.578125 23.238281 L 29 22.976562 L 29 21.089844 C 29.960938 20.125 30.605469 18.847656 30.765625 17.429688 L 30.941406 17.429688 C 32.378906 17.429688 33.550781 16.257812 33.550781 14.820312 L 33.550781 14.585938 C 33.960938 14.617188 34.316406 14.296875 34.316406 13.878906 L 34.316406 13.3125 C 34.316406 11.960938 33.535156 10.808594 32.34375 10.308594 C 32.347656 9.898438 32.320312 9.492188 32.25 9.089844 C 32 7.597656 31.519531 6.613281 30.691406 5.902344 C 28.734375 4.21875 24.84375 3.042969 22.167969 3.976562 C 20.734375 4.480469 18.839844 5.390625 18.0625 6.207031 C 17.417969 6.882812 16.851562 7.769531 16.382812 8.84375 C 16.355469 8.90625 16.335938 8.96875 16.328125 9.03125 C 16.246094 9.613281 16.230469 10.15625 16.277344 10.652344 C 15.441406 11.242188 14.921875 12.210938 14.921875 13.3125 L 14.921875 13.878906 C 14.921875 14.292969 15.277344 14.625 15.6875 14.585938 L 15.6875 14.820312 C 15.6875 16.257812 16.859375 17.429688 18.296875 17.429688 L 18.46875 17.429688 C 18.632812 18.847656 19.277344 20.125 20.238281 21.089844 L 20.238281 22.976562 L 18.660156 23.238281 C 18.175781 23.316406 17.769531 23.457031 17.339844 23.691406 L 13.789062 25.628906 L 13.765625 25.617188 L 13.460938 22.015625 C 14.035156 21.613281 14.410156 20.953125 14.410156 20.203125 L 14.410156 17.773438 C 14.410156 16.554688 13.421875 15.566406 12.203125 15.566406 L 12.023438 15.566406 L 12.023438 14.175781 C 13.34375 13.816406 14.316406 12.613281 14.316406 11.183594 L 14.316406 9.535156 C 14.316406 7.828125 12.925781 6.4375 11.21875 6.4375 L 7.316406 6.4375 L 3.3125 4.878906 C 3.230469 4.847656 3.144531 4.832031 3.054688 4.832031 L 1.953125 4.832031 C 1.15625 4.832031 0.507812 5.480469 0.507812 6.273438 L 0.507812 14.441406 C 0.507812 15.238281 1.15625 15.886719 1.953125 15.886719 L 3.054688 15.886719 C 3.144531 15.886719 3.230469 15.871094 3.3125 15.835938 L 7.316406 14.28125 L 7.851562 14.28125 L 7.851562 15.761719 C 6.777344 16.179688 6.015625 17.226562 6.015625 18.445312 L 6.015625 20.203125 C 6.015625 20.9375 6.378906 21.589844 6.933594 21.992188 L 6.933594 30.527344 C 6.933594 31.9375 7.566406 33.15625 8.722656 33.964844 C 9.875 34.773438 11.238281 34.953125 12.5625 34.472656 L 17.003906 32.855469 L 17.027344 32.882812 L 17.027344 42.570312 C 17.027344 43.367188 17.675781 44.015625 18.472656 44.015625 L 30.765625 44.015625 C 31.5625 44.015625 32.210938 43.367188 32.210938 42.570312 L 32.210938 32.871094 L 32.230469 32.855469 L 36.675781 34.472656 C 38 34.953125 39.363281 34.773438 40.515625 33.964844 C 41.667969 33.15625 42.304688 31.9375 42.304688 30.527344 L 42.304688 22.164062 C 43.011719 21.796875 43.5 21.054688 43.5 20.203125 L 43.5 18.445312 C 43.5 16.855469 42.207031 15.566406 40.621094 15.566406 L 39.78125 15.566406 L 39.78125 10.738281 L 46.921875 7.710938 C 47.496094 7.46875 47.496094 6.648438 46.921875 6.40625 Z M 46.921875 6.40625 "/></g><g clip-rule="nonzero" clip-path="url(#4f8aad6a4d)"><path style=" stroke:none;fill-rule:nonzero;fill:#000000;fill-opacity:1;" d="M 42.332031 6.746094 C 42.496094 6.746094 42.628906 6.609375 42.628906 6.441406 C 42.628906 6.273438 42.496094 6.136719 42.332031 6.136719 C 42.171875 6.136719 42.039062 6.273438 42.039062 6.441406 C 42.039062 6.609375 42.171875 6.746094 42.332031 6.746094 Z M 42.332031 6.207031 C 42.457031 6.207031 42.558594 6.3125 42.558594 6.441406 C 42.558594 6.570312 42.457031 6.671875 42.332031 6.671875 C 42.210938 6.671875 42.109375 6.570312 42.109375 6.441406 C 42.109375 6.3125 42.210938 6.207031 42.332031 6.207031 Z M 42.332031 6.207031 "/></g><g clip-rule="nonzero" clip-path="url(#485636d609)"><path style=" stroke:none;fill-rule:nonzero;fill:#000000;fill-opacity:1;" d="M 39.984375 5.996094 L 40.195312 6.375 C 40.085938 6.390625 39.984375 6.429688 39.984375 6.5 C 39.984375 6.59375 40.152344 6.636719 40.308594 6.636719 C 40.46875 6.636719 40.636719 6.59375 40.636719 6.5 C 40.636719 6.429688 40.535156 6.390625 40.425781 6.375 L 40.621094 6.019531 L 40.636719 5.996094 L 40.625 5.988281 C 40.625 5.984375 40.621094 5.984375 40.621094 5.984375 L 40.636719 5.992188 C 40.640625 5.988281 40.640625 5.984375 40.644531 5.980469 C 40.667969 5.929688 40.679688 5.875 40.679688 5.816406 C 40.679688 5.609375 40.511719 5.4375 40.308594 5.4375 C 40.109375 5.4375 39.941406 5.609375 39.941406 5.816406 C 39.941406 5.875 39.953125 5.929688 39.976562 5.980469 C 39.980469 5.984375 39.980469 5.988281 39.984375 5.996094 Z M 40.566406 6.5 C 40.5625 6.519531 40.476562 6.5625 40.308594 6.5625 C 40.144531 6.5625 40.058594 6.519531 40.054688 6.503906 C 40.058594 6.488281 40.117188 6.453125 40.234375 6.441406 L 40.28125 6.523438 C 40.285156 6.535156 40.296875 6.542969 40.308594 6.542969 C 40.324219 6.542969 40.335938 6.535156 40.339844 6.523438 L 40.386719 6.441406 C 40.503906 6.453125 40.5625 6.488281 40.566406 6.5 Z M 40.308594 5.507812 C 40.476562 5.507812 40.609375 5.648438 40.609375 5.816406 C 40.609375 5.863281 40.597656 5.910156 40.578125 5.949219 C 40.578125 5.953125 40.578125 5.957031 40.578125 5.957031 L 40.574219 5.957031 L 40.589844 5.964844 L 40.574219 5.957031 L 40.5625 5.984375 L 40.308594 6.433594 L 40.046875 5.957031 C 40.042969 5.957031 40.042969 5.953125 40.039062 5.949219 C 40.023438 5.910156 40.011719 5.863281 40.011719 5.816406 C 40.011719 5.648438 40.144531 5.507812 40.308594 5.507812 Z M 40.308594 5.507812 "/></g><g clip-rule="nonzero" clip-path="url(#f7c850bd9b)"><path style=" stroke:none;fill-rule:nonzero;fill:#000000;fill-opacity:1;" d="M 40.308594 6.035156 C 40.425781 6.035156 40.519531 5.9375 40.519531 5.816406 C 40.519531 5.699219 40.425781 5.601562 40.308594 5.601562 C 40.195312 5.601562 40.101562 5.699219 40.101562 5.816406 C 40.101562 5.9375 40.195312 6.035156 40.308594 6.035156 Z M 40.308594 5.671875 C 40.386719 5.671875 40.449219 5.738281 40.449219 5.816406 C 40.449219 5.898438 40.386719 5.960938 40.308594 5.960938 C 40.234375 5.960938 40.171875 5.898438 40.171875 5.816406 C 40.171875 5.738281 40.234375 5.671875 40.308594 5.671875 Z M 40.308594 5.671875 "/></g><g clip-rule="nonzero" clip-path="url(#c367b3495b)"><path style=" stroke:none;fill-rule:nonzero;fill:#000000;fill-opacity:1;" d="M 40.628906 6.972656 C 40.621094 6.996094 40.613281 7.023438 40.613281 7.046875 C 40.609375 7.066406 40.621094 7.085938 40.640625 7.089844 C 40.644531 7.089844 40.644531 7.089844 40.644531 7.089844 C 40.664062 7.089844 40.679688 7.074219 40.679688 7.058594 C 40.683594 7.035156 40.6875 7.015625 40.695312 6.996094 C 40.699219 6.976562 40.691406 6.953125 40.671875 6.949219 C 40.65625 6.941406 40.636719 6.953125 40.628906 6.972656 Z M 40.628906 6.972656 "/></g><path style=" stroke:none;fill-rule:nonzero;fill:#000000;fill-opacity:1;" d="M 41.191406 6.542969 L 41.261719 6.542969 C 41.277344 6.542969 41.292969 6.527344 41.292969 6.507812 C 41.292969 6.488281 41.277344 6.46875 41.261719 6.46875 L 41.191406 6.46875 C 41.171875 6.46875 41.15625 6.488281 41.15625 6.507812 C 41.15625 6.527344 41.171875 6.542969 41.191406 6.542969 Z M 41.191406 6.542969 "/><path style=" stroke:none;fill-rule:nonzero;fill:#000000;fill-opacity:1;" d="M 41.398438 6.542969 L 41.46875 6.542969 C 41.488281 6.542969 41.503906 6.527344 41.503906 6.507812 C 41.503906 6.488281 41.488281 6.46875 41.46875 6.46875 L 41.398438 6.46875 C 41.378906 6.46875 41.363281 6.488281 41.363281 6.507812 C 41.363281 6.527344 41.378906 6.542969 41.398438 6.542969 Z M 41.398438 6.542969 "/><path style=" stroke:none;fill-rule:nonzero;fill:#000000;fill-opacity:1;" d="M 40.773438 6.542969 L 40.839844 6.542969 C 40.859375 6.542969 40.875 6.527344 40.875 6.507812 C 40.875 6.488281 40.859375 6.46875 40.839844 6.46875 L 40.773438 6.46875 C 40.753906 6.46875 40.738281 6.488281 40.738281 6.507812 C 40.738281 6.527344 40.753906 6.542969 40.773438 6.542969 Z M 40.773438 6.542969 "/><path style=" stroke:none;fill-rule:nonzero;fill:#000000;fill-opacity:1;" d="M 40.980469 6.542969 L 41.050781 6.542969 C 41.070312 6.542969 41.085938 6.527344 41.085938 6.507812 C 41.085938 6.488281 41.070312 6.46875 41.050781 6.46875 L 40.980469 6.46875 C 40.960938 6.46875 40.945312 6.488281 40.945312 6.507812 C 40.945312 6.527344 40.960938 6.542969 40.980469 6.542969 Z M 40.980469 6.542969 "/><path style=" stroke:none;fill-rule:nonzero;fill:#000000;fill-opacity:1;" d="M 41.601562 6.605469 C 41.605469 6.621094 41.621094 6.632812 41.636719 6.632812 C 41.640625 6.632812 41.640625 6.632812 41.644531 6.632812 C 41.664062 6.628906 41.675781 6.609375 41.671875 6.589844 C 41.664062 6.558594 41.648438 6.53125 41.625 6.507812 C 41.609375 6.496094 41.589844 6.496094 41.574219 6.511719 C 41.5625 6.527344 41.5625 6.550781 41.578125 6.5625 C 41.589844 6.574219 41.597656 6.589844 41.601562 6.605469 Z M 41.601562 6.605469 "/><path style=" stroke:none;fill-rule:nonzero;fill:#000000;fill-opacity:1;" d="M 40.871094 6.753906 C 40.878906 6.773438 40.890625 6.78125 40.90625 6.78125 C 40.910156 6.78125 40.914062 6.78125 40.914062 6.78125 C 40.9375 6.777344 40.957031 6.773438 40.976562 6.769531 C 40.988281 6.769531 41 6.761719 41.003906 6.753906 C 41.011719 6.761719 41.023438 6.769531 41.035156 6.769531 L 41.183594 6.769531 C 41.199219 6.769531 41.207031 6.761719 41.214844 6.753906 C 41.222656 6.761719 41.230469 6.769531 41.246094 6.769531 L 41.394531 6.769531 C 41.40625 6.769531 41.417969 6.761719 41.425781 6.753906 C 41.429688 6.761719 41.441406 6.769531 41.453125 6.769531 L 41.527344 6.769531 C 41.554688 6.769531 41.578125 6.765625 41.597656 6.75 C 41.617188 6.742188 41.621094 6.71875 41.613281 6.703125 C 41.605469 6.683594 41.582031 6.679688 41.566406 6.6875 C 41.554688 6.695312 41.542969 6.699219 41.527344 6.699219 L 41.453125 6.699219 C 41.441406 6.699219 41.429688 6.707031 41.425781 6.714844 C 41.417969 6.707031 41.40625 6.699219 41.394531 6.699219 L 41.246094 6.699219 C 41.230469 6.699219 41.222656 6.707031 41.214844 6.714844 C 41.207031 6.707031 41.199219 6.699219 41.183594 6.699219 L 41.035156 6.699219 C 41.023438 6.699219 41.011719 6.707031 41.003906 6.714844 C 41 6.707031 40.988281 6.699219 40.972656 6.699219 C 40.949219 6.699219 40.921875 6.703125 40.898438 6.710938 C 40.878906 6.714844 40.867188 6.734375 40.871094 6.753906 Z M 40.871094 6.753906 "/><path style=" stroke:none;fill-rule:nonzero;fill:#000000;fill-opacity:1;" d="M 40.730469 6.894531 C 40.742188 6.894531 40.75 6.890625 40.757812 6.882812 C 40.761719 6.875 40.765625 6.871094 40.769531 6.867188 C 40.78125 6.855469 40.792969 6.847656 40.804688 6.835938 C 40.820312 6.824219 40.820312 6.804688 40.808594 6.789062 C 40.796875 6.769531 40.777344 6.769531 40.761719 6.78125 C 40.746094 6.792969 40.734375 6.804688 40.722656 6.816406 C 40.714844 6.820312 40.710938 6.828125 40.703125 6.835938 C 40.691406 6.847656 40.695312 6.871094 40.707031 6.886719 C 40.714844 6.890625 40.722656 6.894531 40.730469 6.894531 Z M 40.730469 6.894531 "/><g clip-rule="nonzero" clip-path="url(#59b216a9b0)"><path style=" stroke:none;fill-rule:nonzero;fill:#000000;fill-opacity:1;" d="M 41.582031 7.429688 C 41.5625 7.429688 41.546875 7.445312 41.546875 7.464844 C 41.546875 7.484375 41.5625 7.5 41.582031 7.5 L 41.652344 7.5 C 41.671875 7.5 41.6875 7.484375 41.6875 7.464844 C 41.6875 7.445312 41.671875 7.429688 41.652344 7.429688 Z M 41.582031 7.429688 "/></g><g clip-rule="nonzero" clip-path="url(#d6cfc6ac6a)"><path style=" stroke:none;fill-rule:nonzero;fill:#000000;fill-opacity:1;" d="M 40.996094 7.5 L 41.023438 7.5 C 41.042969 7.5 41.058594 7.484375 41.058594 7.464844 C 41.058594 7.445312 41.042969 7.429688 41.023438 7.429688 L 40.996094 7.429688 C 40.984375 7.429688 40.972656 7.429688 40.957031 7.425781 C 40.941406 7.425781 40.921875 7.4375 40.921875 7.457031 C 40.917969 7.476562 40.929688 7.496094 40.949219 7.5 C 40.964844 7.5 40.980469 7.5 40.996094 7.5 Z M 40.996094 7.5 "/></g><g clip-rule="nonzero" clip-path="url(#36271eceb3)"><path style=" stroke:none;fill-rule:nonzero;fill:#000000;fill-opacity:1;" d="M 40.824219 7.453125 C 40.835938 7.453125 40.847656 7.449219 40.851562 7.4375 C 40.863281 7.417969 40.855469 7.398438 40.839844 7.386719 C 40.820312 7.375 40.804688 7.363281 40.789062 7.347656 C 40.773438 7.335938 40.753906 7.339844 40.738281 7.351562 C 40.726562 7.367188 40.730469 7.390625 40.742188 7.402344 C 40.761719 7.421875 40.785156 7.4375 40.804688 7.449219 C 40.8125 7.453125 40.816406 7.453125 40.824219 7.453125 Z M 40.824219 7.453125 "/></g><g clip-rule="nonzero" clip-path="url(#a1d2329be8)"><path style=" stroke:none;fill-rule:nonzero;fill:#000000;fill-opacity:1;" d="M 41.234375 7.5 C 41.253906 7.5 41.269531 7.484375 41.269531 7.464844 C 41.269531 7.445312 41.253906 7.429688 41.234375 7.429688 L 41.164062 7.429688 C 41.144531 7.429688 41.128906 7.445312 41.128906 7.464844 C 41.128906 7.484375 41.144531 7.5 41.164062 7.5 Z M 41.234375 7.5 "/></g><g clip-rule="nonzero" clip-path="url(#227eb61136)"><path style=" stroke:none;fill-rule:nonzero;fill:#000000;fill-opacity:1;" d="M 40.679688 7.300781 C 40.6875 7.300781 40.691406 7.296875 40.695312 7.296875 C 40.714844 7.285156 40.71875 7.265625 40.710938 7.246094 C 40.703125 7.226562 40.695312 7.207031 40.6875 7.1875 C 40.683594 7.167969 40.664062 7.15625 40.648438 7.160156 C 40.628906 7.167969 40.617188 7.1875 40.621094 7.207031 C 40.628906 7.230469 40.636719 7.257812 40.648438 7.28125 C 40.65625 7.292969 40.667969 7.300781 40.679688 7.300781 Z M 40.679688 7.300781 "/></g><g clip-rule="nonzero" clip-path="url(#6bc675f4a8)"><path style=" stroke:none;fill-rule:nonzero;fill:#000000;fill-opacity:1;" d="M 41.441406 7.5 C 41.460938 7.5 41.476562 7.484375 41.476562 7.464844 C 41.476562 7.445312 41.460938 7.429688 41.441406 7.429688 L 41.375 7.429688 C 41.355469 7.429688 41.339844 7.445312 41.339844 7.464844 C 41.339844 7.484375 41.355469 7.5 41.375 7.5 Z M 41.441406 7.5 "/></g><g clip-rule="nonzero" clip-path="url(#920641e50d)"><path style=" stroke:none;fill-rule:nonzero;fill:#000000;fill-opacity:1;" d="M 41.792969 7.5 L 41.863281 7.5 C 41.867188 7.5 41.871094 7.5 41.875 7.5 C 41.921875 7.59375 42.128906 7.640625 42.332031 7.640625 C 42.566406 7.640625 42.800781 7.578125 42.800781 7.457031 C 42.800781 7.355469 42.636719 7.300781 42.476562 7.285156 L 42.78125 6.734375 L 42.785156 6.730469 L 42.804688 6.695312 L 42.789062 6.683594 L 42.804688 6.691406 C 42.808594 6.6875 42.808594 6.679688 42.8125 6.675781 C 42.847656 6.601562 42.863281 6.523438 42.863281 6.441406 C 42.863281 6.136719 42.625 5.890625 42.332031 5.890625 C 42.042969 5.890625 41.804688 6.136719 41.804688 6.441406 C 41.804688 6.523438 41.820312 6.601562 41.855469 6.675781 C 41.855469 6.679688 41.859375 6.6875 41.863281 6.695312 L 42.191406 7.285156 C 42.046875 7.300781 41.898438 7.347656 41.871094 7.429688 C 41.867188 7.429688 41.863281 7.429688 41.863281 7.429688 L 41.792969 7.429688 C 41.773438 7.429688 41.757812 7.445312 41.757812 7.464844 C 41.757812 7.484375 41.773438 7.5 41.792969 7.5 Z M 42.332031 5.964844 C 42.585938 5.964844 42.792969 6.175781 42.792969 6.441406 C 42.792969 6.511719 42.777344 6.582031 42.75 6.644531 C 42.746094 6.648438 42.746094 6.652344 42.742188 6.65625 L 42.753906 6.664062 L 42.742188 6.660156 L 42.722656 6.691406 C 42.722656 6.695312 42.722656 6.695312 42.722656 6.695312 L 42.722656 6.699219 L 42.332031 7.394531 L 41.921875 6.65625 C 41.921875 6.652344 41.917969 6.648438 41.917969 6.644531 C 41.886719 6.582031 41.875 6.511719 41.875 6.441406 C 41.871094 6.175781 42.078125 5.964844 42.332031 5.964844 Z M 42.230469 7.351562 L 42.304688 7.484375 C 42.308594 7.496094 42.320312 7.5 42.332031 7.5 C 42.347656 7.5 42.359375 7.496094 42.363281 7.484375 L 42.4375 7.351562 C 42.632812 7.367188 42.730469 7.429688 42.730469 7.457031 C 42.730469 7.496094 42.589844 7.570312 42.332031 7.570312 C 42.078125 7.570312 41.9375 7.496094 41.9375 7.457031 C 41.9375 7.429688 42.023438 7.371094 42.230469 7.351562 Z M 42.230469 7.351562 "/></g></g></svg>