<svg xmlns="http://www.w3.org/2000/svg" xmlns:xlink="http://www.w3.org/1999/xlink" width="500" zoomAndPan="magnify" viewBox="0 0 375 149.999998" height="200" preserveAspectRatio="xMidYMid meet" version="1.2"><defs><clipPath id="95f25a482a"><path d="M 297 43.292969 L 348 43.292969 L 348 76 L 297 76 Z M 297 43.292969 "/></clipPath><clipPath id="f4e30ddb48"><path d="M 299 68 L 357 68 L 357 102.820312 L 299 102.820312 Z M 299 68 "/></clipPath><clipPath id="19b1e604d6"><path d="M 292.058594 61 L 344 61 L 344 82 L 292.058594 82 Z M 292.058594 61 "/></clipPath></defs><g id="1f6041ba70"><g style="fill:#bc9c22;fill-opacity:1;"><g transform="translate(5.814782, 100.32936)"><path style="stroke:none" d="M 28.84375 -33.15625 L 53.28125 -33.15625 L 53.28125 -2.640625 C 46.644531 -0.359375 39.351562 0.78125 31.40625 0.78125 C 22.675781 0.78125 15.929688 -1.75 11.171875 -6.8125 C 6.410156 -11.875 4.03125 -19.09375 4.03125 -28.46875 C 4.03125 -37.601562 6.632812 -44.710938 11.84375 -49.796875 C 17.0625 -54.890625 24.367188 -57.4375 33.765625 -57.4375 C 37.328125 -57.4375 40.691406 -57.097656 43.859375 -56.421875 C 47.023438 -55.753906 49.78125 -54.90625 52.125 -53.875 L 47.28125 -41.859375 C 43.207031 -43.878906 38.726562 -44.890625 33.84375 -44.890625 C 29.375 -44.890625 25.921875 -43.4375 23.484375 -40.53125 C 21.046875 -37.625 19.828125 -33.472656 19.828125 -28.078125 C 19.828125 -22.785156 20.929688 -18.75 23.140625 -15.96875 C 25.347656 -13.195312 28.53125 -11.8125 32.6875 -11.8125 C 34.957031 -11.8125 37.046875 -12.03125 38.953125 -12.46875 L 38.953125 -21.34375 L 28.84375 -21.34375 Z M 28.84375 -33.15625 "/></g></g><g style="fill:#bc9c22;fill-opacity:1;"><g transform="translate(64.520432, 100.32936)"><path style="stroke:none" d="M 54.640625 0 L 39.265625 0 L 39.265625 -23.078125 L 21.5 -23.078125 L 21.5 0 L 6.125 0 L 6.125 -56.625 L 21.5 -56.625 L 21.5 -35.625 L 39.265625 -35.625 L 39.265625 -56.625 L 54.640625 -56.625 Z M 54.640625 0 "/></g></g><g style="fill:#bc9c22;fill-opacity:1;"><g transform="translate(125.278467, 100.32936)"><path style="stroke:none" d="M 54.25 -56.625 L 54.25 -22.53125 C 54.25 -15.125 52.148438 -9.382812 47.953125 -5.3125 C 43.765625 -1.25 37.71875 0.78125 29.8125 0.78125 C 22.09375 0.78125 16.160156 -1.191406 12.015625 -5.140625 C 7.878906 -9.097656 5.8125 -14.78125 5.8125 -22.1875 L 5.8125 -56.625 L 21.1875 -56.625 L 21.1875 -23.390625 C 21.1875 -19.390625 21.929688 -16.484375 23.421875 -14.671875 C 24.921875 -12.867188 27.128906 -11.96875 30.046875 -11.96875 C 33.171875 -11.96875 35.4375 -12.863281 36.84375 -14.65625 C 38.25 -16.445312 38.953125 -19.382812 38.953125 -23.46875 L 38.953125 -56.625 Z M 54.25 -56.625 "/></g></g><g style="fill:#bc9c22;fill-opacity:1;"><g transform="translate(185.300735, 100.32936)"><path style="stroke:none" d="M 21.421875 -20.609375 L 21.421875 0 L 6.125 0 L 6.125 -56.625 L 24.671875 -56.625 C 40.054688 -56.625 47.75 -51.046875 47.75 -39.890625 C 47.75 -33.328125 44.546875 -28.253906 38.140625 -24.671875 L 54.640625 0 L 37.296875 0 L 25.28125 -20.609375 Z M 21.421875 -32.109375 L 24.28125 -32.109375 C 29.625 -32.109375 32.296875 -34.46875 32.296875 -39.1875 C 32.296875 -43.09375 29.675781 -45.046875 24.4375 -45.046875 L 21.421875 -45.046875 Z M 21.421875 -32.109375 "/></g></g><g style="fill:#bc9c22;fill-opacity:1;"><g transform="translate(238.97226, 100.32936)"><path style="stroke:none" d="M 6.125 -56.625 L 25.875 -56.625 C 33.5625 -56.625 39.269531 -55.476562 43 -53.1875 C 46.738281 -50.90625 48.609375 -47.347656 48.609375 -42.515625 C 48.609375 -39.347656 47.789062 -36.640625 46.15625 -34.390625 C 44.53125 -32.140625 42.390625 -30.691406 39.734375 -30.046875 L 39.734375 -29.671875 C 43.242188 -28.734375 45.785156 -27.179688 47.359375 -25.015625 C 48.929688 -22.847656 49.71875 -20.035156 49.71875 -16.578125 C 49.71875 -11.441406 47.785156 -7.394531 43.921875 -4.4375 C 40.066406 -1.476562 34.8125 0 28.15625 0 L 6.125 0 Z M 21.421875 -34.890625 L 26.03125 -34.890625 C 28.21875 -34.890625 29.910156 -35.34375 31.109375 -36.25 C 32.316406 -37.15625 32.921875 -38.5 32.921875 -40.28125 C 32.921875 -43.457031 30.519531 -45.046875 25.71875 -45.046875 L 21.421875 -45.046875 Z M 21.421875 -23.703125 L 21.421875 -11.8125 L 26.796875 -11.8125 C 31.578125 -11.8125 33.96875 -13.828125 33.96875 -17.859375 C 33.96875 -19.742188 33.328125 -21.1875 32.046875 -22.1875 C 30.765625 -23.195312 28.910156 -23.703125 26.484375 -23.703125 Z M 21.421875 -23.703125 "/></g></g><g clip-rule="nonzero" clip-path="url(#95f25a482a)"><path style=" stroke:none;fill-rule:nonzero;fill:#bc9c22;fill-opacity:1;" d="M 302.339844 74.734375 C 302.292969 74.121094 302.269531 73.503906 302.269531 72.878906 C 302.269531 70.351562 302.644531 67.917969 303.34375 65.621094 C 304.296875 68.308594 307.652344 70.265625 309.988281 71.628906 C 310.667969 72.03125 311.371094 72.402344 312.027344 72.839844 C 313.277344 72.511719 314.515625 72.152344 315.738281 71.761719 C 315.496094 71.105469 315.386719 70.246094 315.523438 69.796875 C 315.863281 68.671875 316.914062 68.964844 317.894531 68.878906 C 321.113281 68.601562 320.121094 63.421875 321.554688 61.496094 C 322.605469 60.085938 324.722656 59.230469 324.730469 57.476562 C 324.734375 56.023438 323.179688 54.925781 323.152344 53.472656 C 323.148438 53.328125 323.160156 53.183594 323.183594 53.035156 C 323.269531 52.480469 323.492188 51.929688 323.449219 51.371094 C 323.367188 50.242188 322.320312 49.449219 321.457031 48.621094 C 323.300781 48.1875 325.222656 47.953125 327.199219 47.953125 C 329.761719 47.953125 332.238281 48.339844 334.566406 49.0625 C 333.910156 50.863281 335.347656 53.941406 336.945312 54.953125 C 338.144531 55.714844 339.832031 56.011719 340.367188 57.328125 C 340.460938 57.5625 340.503906 57.796875 340.511719 58.027344 C 342.703125 56.128906 344.761719 54.089844 346.679688 51.910156 C 346.960938 51.59375 347.15625 51.371094 347.332031 51.210938 C 342.054688 46.300781 334.976562 43.296875 327.199219 43.296875 C 310.859375 43.296875 297.613281 56.542969 297.613281 72.882812 C 297.613281 73.667969 297.644531 74.449219 297.703125 75.21875 C 299.265625 75.097656 300.808594 74.9375 302.339844 74.734375 Z M 302.339844 74.734375 "/></g><g clip-rule="nonzero" clip-path="url(#f4e30ddb48)"><path style=" stroke:none;fill-rule:nonzero;fill:#bc9c22;fill-opacity:1;" d="M 353.011719 70.921875 C 352.800781 71.042969 352.648438 71.136719 352.578125 71.175781 C 347.722656 74.144531 342.515625 76.601562 337.074219 78.503906 C 337.046875 78.75 337.046875 78.992188 337.089844 79.234375 C 337.335938 80.609375 338.683594 81.785156 340.078125 81.824219 C 340.722656 81.847656 341.449219 81.695312 341.945312 82.105469 C 342.246094 82.351562 342.378906 82.746094 342.480469 83.125 C 343.15625 85.582031 343.339844 88.171875 343.019531 90.699219 C 342.957031 91.210938 342.875 91.730469 342.90625 92.238281 C 338.617188 95.71875 333.152344 97.808594 327.199219 97.808594 C 326.007812 97.808594 324.835938 97.722656 323.691406 97.558594 C 323.703125 97.351562 323.71875 97.144531 323.75 96.9375 C 323.910156 95.898438 324.457031 94.925781 325.261719 94.246094 C 325.792969 93.800781 326.496094 93.363281 326.515625 92.664062 C 326.535156 91.917969 325.757812 91.445312 325.234375 90.910156 C 324.21875 89.863281 324.097656 88.199219 324.980469 87.089844 C 326.128906 85.648438 327.21875 84.140625 328.300781 82.628906 C 328.667969 82.117188 329.054688 81.535156 328.96875 80.910156 C 328.96875 80.90625 328.964844 80.902344 328.964844 80.894531 C 324.304688 82.015625 319.527344 82.753906 314.6875 83.082031 C 313.53125 83.160156 312.386719 83.210938 311.246094 83.246094 C 311.136719 84.296875 311.222656 85.371094 311.527344 86.324219 C 312.179688 88.371094 313.949219 89.941406 315.964844 90.683594 C 316.496094 90.875 317.058594 91.027344 317.503906 91.371094 C 317.953125 91.714844 318.253906 92.332031 318.039062 92.851562 C 317.914062 93.164062 317.617188 93.421875 317.613281 93.757812 C 317.609375 93.988281 317.753906 94.195312 317.886719 94.382812 C 318.132812 94.730469 318.605469 95.558594 319.160156 96.484375 C 312.625 94.257812 307.3125 89.390625 304.488281 83.160156 C 303.710938 83.117188 302.933594 83.066406 302.167969 83 L 302.054688 82.988281 C 301.273438 82.921875 300.3125 82.839844 299.285156 82.691406 C 303.332031 94.207031 314.300781 102.464844 327.199219 102.464844 C 343.539062 102.464844 356.785156 89.21875 356.785156 72.882812 C 356.785156 71.488281 356.683594 70.113281 356.5 68.769531 C 355.824219 69.28125 354.730469 69.933594 353.011719 70.921875 Z M 353.011719 70.921875 "/></g><g clip-rule="nonzero" clip-path="url(#19b1e604d6)"><path style=" stroke:none;fill-rule:nonzero;fill:#bc9c22;fill-opacity:1;" d="M 337.601562 61.773438 C 337.289062 61.644531 325.464844 73.199219 301.917969 75.980469 C 300.53125 76.144531 296.300781 76.609375 295.15625 76.398438 C 293.855469 76.164062 292.769531 75.371094 294.054688 73.070312 C 293.183594 74.117188 292.128906 74.96875 292.113281 76.488281 C 292.074219 81.011719 299.027344 81.558594 302.265625 81.839844 C 306.367188 82.191406 312.164062 81.804688 316.21875 81.105469 C 326.101562 79.394531 331.207031 76.28125 343.070312 70.332031 C 343.070312 70.332031 343.074219 66.859375 343.070312 64.238281 C 343.066406 64.234375 340.828125 63.085938 337.601562 61.773438 Z M 337.601562 61.773438 "/></g><path style=" stroke:none;fill-rule:nonzero;fill:#bc9c22;fill-opacity:1;" d="M 369.253906 48.121094 C 368.425781 46.804688 364.988281 47.460938 363.671875 48.285156 L 362.242188 49.183594 L 348.089844 45.773438 C 347.683594 45.65625 347.210938 45.730469 346.816406 45.976562 C 345.992188 46.496094 345.808594 47.546875 346.449219 48.097656 L 353.867188 53.953125 L 346.183594 60.636719 L 342.558594 59.113281 C 342.132812 58.933594 341.648438 58.972656 341.253906 59.21875 L 339.980469 60.019531 C 339.679688 60.207031 339.695312 60.648438 340.007812 60.8125 L 344.734375 63.402344 L 344.957031 68.707031 C 344.972656 69.058594 345.363281 69.265625 345.660156 69.078125 L 346.9375 68.277344 C 347.328125 68.03125 347.574219 67.609375 347.601562 67.148438 L 347.789062 63.53125 L 356.792969 59.285156 L 359.125 70.027344 C 359.339844 70.847656 360.363281 71.140625 361.191406 70.621094 C 361.585938 70.378906 361.859375 69.988281 361.929688 69.566406 L 365.25 53.980469 L 366.679688 53.082031 C 367.996094 52.253906 370.082031 49.441406 369.253906 48.121094 Z M 366.488281 52.03125 C 366.765625 49.707031 364.464844 48.789062 364.464844 48.789062 C 364.464844 48.789062 366.8125 47.6875 367.664062 49.046875 C 368.558594 50.476562 366.488281 52.03125 366.488281 52.03125 Z M 366.488281 52.03125 "/><g style="fill:#bc9c22;fill-opacity:1;"><g transform="translate(85.232875, 122.985806)"><path style="stroke:none" d="M 6.0625 0 L 3.078125 0 L 3.078125 -8.609375 L 0.390625 -8.609375 L 0.390625 -11.046875 L 8.75 -11.046875 L 8.75 -8.609375 L 6.0625 -8.609375 Z M 6.0625 0 "/></g></g><g style="fill:#bc9c22;fill-opacity:1;"><g transform="translate(94.362529, 122.985806)"><path style="stroke:none" d="M 11.53125 -5.53125 C 11.53125 -3.675781 11.070312 -2.265625 10.15625 -1.296875 C 9.25 -0.328125 7.914062 0.15625 6.15625 0.15625 C 4.425781 0.15625 3.097656 -0.328125 2.171875 -1.296875 C 1.242188 -2.273438 0.78125 -3.691406 0.78125 -5.546875 C 0.78125 -7.390625 1.238281 -8.796875 2.15625 -9.765625 C 3.082031 -10.734375 4.421875 -11.21875 6.171875 -11.21875 C 7.929688 -11.21875 9.265625 -10.734375 10.171875 -9.765625 C 11.078125 -8.804688 11.53125 -7.394531 11.53125 -5.53125 Z M 3.921875 -5.53125 C 3.921875 -3.394531 4.664062 -2.328125 6.15625 -2.328125 C 6.90625 -2.328125 7.460938 -2.585938 7.828125 -3.109375 C 8.203125 -3.628906 8.390625 -4.4375 8.390625 -5.53125 C 8.390625 -6.632812 8.203125 -7.445312 7.828125 -7.96875 C 7.460938 -8.5 6.910156 -8.765625 6.171875 -8.765625 C 4.671875 -8.765625 3.921875 -7.6875 3.921875 -5.53125 Z M 3.921875 -5.53125 "/></g></g><g style="fill:#bc9c22;fill-opacity:1;"><g transform="translate(106.676245, 122.985806)"><path style="stroke:none" d="M 10.578125 -11.046875 L 10.578125 -4.390625 C 10.578125 -2.953125 10.164062 -1.832031 9.34375 -1.03125 C 8.53125 -0.238281 7.351562 0.15625 5.8125 0.15625 C 4.3125 0.15625 3.15625 -0.226562 2.34375 -1 C 1.539062 -1.769531 1.140625 -2.878906 1.140625 -4.328125 L 1.140625 -11.046875 L 4.125 -11.046875 L 4.125 -4.5625 C 4.125 -3.78125 4.269531 -3.210938 4.5625 -2.859375 C 4.851562 -2.503906 5.285156 -2.328125 5.859375 -2.328125 C 6.472656 -2.328125 6.914062 -2.503906 7.1875 -2.859375 C 7.457031 -3.210938 7.59375 -3.785156 7.59375 -4.578125 L 7.59375 -11.046875 Z M 10.578125 -11.046875 "/></g></g><g style="fill:#bc9c22;fill-opacity:1;"><g transform="translate(118.371256, 122.985806)"><path style="stroke:none" d="M 4.171875 -4.015625 L 4.171875 0 L 1.1875 0 L 1.1875 -11.046875 L 4.8125 -11.046875 C 7.8125 -11.046875 9.3125 -9.957031 9.3125 -7.78125 C 9.3125 -6.5 8.6875 -5.507812 7.4375 -4.8125 L 10.65625 0 L 7.28125 0 L 4.9375 -4.015625 Z M 4.171875 -6.265625 L 4.734375 -6.265625 C 5.773438 -6.265625 6.296875 -6.722656 6.296875 -7.640625 C 6.296875 -8.398438 5.785156 -8.78125 4.765625 -8.78125 L 4.171875 -8.78125 Z M 4.171875 -6.265625 "/></g></g><g style="fill:#bc9c22;fill-opacity:1;"><g transform="translate(128.82886, 122.985806)"><path style="stroke:none" d=""/></g></g><g style="fill:#bc9c22;fill-opacity:1;"><g transform="translate(132.84289, 122.985806)"><path style="stroke:none" d="M 9.203125 -7.53125 C 9.203125 -6.300781 8.835938 -5.347656 8.109375 -4.671875 C 7.390625 -3.992188 6.359375 -3.65625 5.015625 -3.65625 L 4.171875 -3.65625 L 4.171875 0 L 1.1875 0 L 1.1875 -11.046875 L 5.015625 -11.046875 C 6.410156 -11.046875 7.457031 -10.738281 8.15625 -10.125 C 8.851562 -9.519531 9.203125 -8.65625 9.203125 -7.53125 Z M 4.171875 -6.09375 L 4.71875 -6.09375 C 5.164062 -6.09375 5.519531 -6.21875 5.78125 -6.46875 C 6.050781 -6.71875 6.1875 -7.066406 6.1875 -7.515625 C 6.1875 -8.265625 5.773438 -8.640625 4.953125 -8.640625 L 4.171875 -8.640625 Z M 4.171875 -6.09375 "/></g></g><g style="fill:#bc9c22;fill-opacity:1;"><g transform="translate(142.606338, 122.985806)"><path style="stroke:none" d="M 1.1875 0 L 1.1875 -11.046875 L 4.171875 -11.046875 L 4.171875 -2.40625 L 8.421875 -2.40625 L 8.421875 0 Z M 1.1875 0 "/></g></g><g style="fill:#bc9c22;fill-opacity:1;"><g transform="translate(151.600179, 122.985806)"><path style="stroke:none" d="M 7.96875 0 L 7.421875 -2.0625 L 3.84375 -2.0625 L 3.28125 0 L 0 0 L 3.609375 -11.09375 L 7.578125 -11.09375 L 11.234375 0 Z M 6.8125 -4.515625 L 6.328125 -6.328125 C 6.210938 -6.734375 6.078125 -7.253906 5.921875 -7.890625 C 5.765625 -8.535156 5.660156 -8.992188 5.609375 -9.265625 C 5.566406 -9.003906 5.476562 -8.578125 5.34375 -7.984375 C 5.207031 -7.398438 4.910156 -6.242188 4.453125 -4.515625 Z M 6.8125 -4.515625 "/></g></g><g style="fill:#bc9c22;fill-opacity:1;"><g transform="translate(162.819853, 122.985806)"><path style="stroke:none" d="M 11.703125 0 L 7.796875 0 L 3.765625 -7.78125 L 3.6875 -7.78125 C 3.789062 -6.550781 3.84375 -5.617188 3.84375 -4.984375 L 3.84375 0 L 1.1875 0 L 1.1875 -11.046875 L 5.09375 -11.046875 L 9.109375 -3.375 L 9.15625 -3.375 C 9.082031 -4.476562 9.046875 -5.367188 9.046875 -6.046875 L 9.046875 -11.046875 L 11.703125 -11.046875 Z M 11.703125 0 "/></g></g><g style="fill:#bc9c22;fill-opacity:1;"><g transform="translate(175.707001, 122.985806)"><path style="stroke:none" d="M 11.703125 0 L 7.796875 0 L 3.765625 -7.78125 L 3.6875 -7.78125 C 3.789062 -6.550781 3.84375 -5.617188 3.84375 -4.984375 L 3.84375 0 L 1.1875 0 L 1.1875 -11.046875 L 5.09375 -11.046875 L 9.109375 -3.375 L 9.15625 -3.375 C 9.082031 -4.476562 9.046875 -5.367188 9.046875 -6.046875 L 9.046875 -11.046875 L 11.703125 -11.046875 Z M 11.703125 0 "/></g></g><g style="fill:#bc9c22;fill-opacity:1;"><g transform="translate(188.594149, 122.985806)"><path style="stroke:none" d="M 7.75 0 L 1.1875 0 L 1.1875 -11.046875 L 7.75 -11.046875 L 7.75 -8.640625 L 4.171875 -8.640625 L 4.171875 -6.90625 L 7.484375 -6.90625 L 7.484375 -4.515625 L 4.171875 -4.515625 L 4.171875 -2.4375 L 7.75 -2.4375 Z M 7.75 0 "/></g></g><g style="fill:#bc9c22;fill-opacity:1;"><g transform="translate(197.074919, 122.985806)"><path style="stroke:none" d="M 4.171875 -4.015625 L 4.171875 0 L 1.1875 0 L 1.1875 -11.046875 L 4.8125 -11.046875 C 7.8125 -11.046875 9.3125 -9.957031 9.3125 -7.78125 C 9.3125 -6.5 8.6875 -5.507812 7.4375 -4.8125 L 10.65625 0 L 7.28125 0 L 4.9375 -4.015625 Z M 4.171875 -6.265625 L 4.734375 -6.265625 C 5.773438 -6.265625 6.296875 -6.722656 6.296875 -7.640625 C 6.296875 -8.398438 5.785156 -8.78125 4.765625 -8.78125 L 4.171875 -8.78125 Z M 4.171875 -6.265625 "/></g></g><g style="fill:#bc9c22;fill-opacity:1;"><g transform="translate(207.532523, 122.985806)"><path style="stroke:none" d=""/></g></g><g style="fill:#bc9c22;fill-opacity:1;"><g transform="translate(211.546553, 122.985806)"><path style="stroke:none" d="M 7.96875 0 L 7.421875 -2.0625 L 3.84375 -2.0625 L 3.28125 0 L 0 0 L 3.609375 -11.09375 L 7.578125 -11.09375 L 11.234375 0 Z M 6.8125 -4.515625 L 6.328125 -6.328125 C 6.210938 -6.734375 6.078125 -7.253906 5.921875 -7.890625 C 5.765625 -8.535156 5.660156 -8.992188 5.609375 -9.265625 C 5.566406 -9.003906 5.476562 -8.578125 5.34375 -7.984375 C 5.207031 -7.398438 4.910156 -6.242188 4.453125 -4.515625 Z M 6.8125 -4.515625 "/></g></g><g style="fill:#bc9c22;fill-opacity:1;"><g transform="translate(222.766226, 122.985806)"><path style="stroke:none" d="M 5.625 -6.46875 L 10.390625 -6.46875 L 10.390625 -0.515625 C 9.097656 -0.0664062 7.675781 0.15625 6.125 0.15625 C 4.425781 0.15625 3.109375 -0.335938 2.171875 -1.328125 C 1.242188 -2.316406 0.78125 -3.722656 0.78125 -5.546875 C 0.78125 -7.328125 1.289062 -8.710938 2.3125 -9.703125 C 3.332031 -10.703125 4.757812 -11.203125 6.59375 -11.203125 C 7.28125 -11.203125 7.929688 -11.132812 8.546875 -11 C 9.171875 -10.875 9.710938 -10.707031 10.171875 -10.5 L 9.21875 -8.171875 C 8.425781 -8.554688 7.550781 -8.75 6.59375 -8.75 C 5.726562 -8.75 5.054688 -8.460938 4.578125 -7.890625 C 4.109375 -7.328125 3.875 -6.519531 3.875 -5.46875 C 3.875 -4.4375 4.085938 -3.648438 4.515625 -3.109375 C 4.941406 -2.566406 5.5625 -2.296875 6.375 -2.296875 C 6.820312 -2.296875 7.226562 -2.34375 7.59375 -2.4375 L 7.59375 -4.15625 L 5.625 -4.15625 Z M 5.625 -6.46875 "/></g></g><g style="fill:#bc9c22;fill-opacity:1;"><g transform="translate(234.204702, 122.985806)"><path style="stroke:none" d="M 7.75 0 L 1.1875 0 L 1.1875 -11.046875 L 7.75 -11.046875 L 7.75 -8.640625 L 4.171875 -8.640625 L 4.171875 -6.90625 L 7.484375 -6.90625 L 7.484375 -4.515625 L 4.171875 -4.515625 L 4.171875 -2.4375 L 7.75 -2.4375 Z M 7.75 0 "/></g></g><g style="fill:#bc9c22;fill-opacity:1;"><g transform="translate(242.685472, 122.985806)"><path style="stroke:none" d="M 11.703125 0 L 7.796875 0 L 3.765625 -7.78125 L 3.6875 -7.78125 C 3.789062 -6.550781 3.84375 -5.617188 3.84375 -4.984375 L 3.84375 0 L 1.1875 0 L 1.1875 -11.046875 L 5.09375 -11.046875 L 9.109375 -3.375 L 9.15625 -3.375 C 9.082031 -4.476562 9.046875 -5.367188 9.046875 -6.046875 L 9.046875 -11.046875 L 11.703125 -11.046875 Z M 11.703125 0 "/></g></g><g style="fill:#bc9c22;fill-opacity:1;"><g transform="translate(255.57262, 122.985806)"><path style="stroke:none" d="M 6.109375 -8.75 C 5.398438 -8.75 4.847656 -8.457031 4.453125 -7.875 C 4.054688 -7.300781 3.859375 -6.5 3.859375 -5.46875 C 3.859375 -3.34375 4.664062 -2.28125 6.28125 -2.28125 C 6.769531 -2.28125 7.242188 -2.347656 7.703125 -2.484375 C 8.160156 -2.628906 8.617188 -2.796875 9.078125 -2.984375 L 9.078125 -0.453125 C 8.160156 -0.046875 7.117188 0.15625 5.953125 0.15625 C 4.285156 0.15625 3.003906 -0.328125 2.109375 -1.296875 C 1.222656 -2.265625 0.78125 -3.660156 0.78125 -5.484375 C 0.78125 -6.628906 0.992188 -7.632812 1.421875 -8.5 C 1.859375 -9.363281 2.476562 -10.03125 3.28125 -10.5 C 4.09375 -10.96875 5.046875 -11.203125 6.140625 -11.203125 C 7.335938 -11.203125 8.476562 -10.941406 9.5625 -10.421875 L 8.640625 -8.078125 C 8.234375 -8.265625 7.828125 -8.421875 7.421875 -8.546875 C 7.015625 -8.679688 6.578125 -8.75 6.109375 -8.75 Z M 6.109375 -8.75 "/></g></g><g style="fill:#bc9c22;fill-opacity:1;"><g transform="translate(265.600157, 122.985806)"><path style="stroke:none" d="M 5.140625 -6.953125 L 7.046875 -11.046875 L 10.265625 -11.046875 L 6.640625 -4.3125 L 6.640625 0 L 3.640625 0 L 3.640625 -4.21875 L 0 -11.046875 L 3.25 -11.046875 Z M 5.140625 -6.953125 "/></g></g></g></svg>