<svg xmlns="http://www.w3.org/2000/svg" xmlns:xlink="http://www.w3.org/1999/xlink" width="64" zoomAndPan="magnify" viewBox="0 0 48 48" height="64" preserveAspectRatio="xMidYMid meet" version="1.2"><defs><clipPath id="4caf6c72ff"><path d="M 6 7.980469 L 33 7.980469 L 33 25 L 6 25 Z M 6 7.980469 "/></clipPath><clipPath id="8f9731c724"><path d="M 7 21 L 38 21 L 38 38.835938 L 7 38.835938 Z M 7 21 "/></clipPath><clipPath id="d421c096ca"><path d="M 3.515625 17 L 31 17 L 31 29 L 3.515625 29 Z M 3.515625 17 "/></clipPath></defs><g id="5d9405c5cd"><g clip-rule="nonzero" clip-path="url(#4caf6c72ff)"><path style=" stroke:none;fill-rule:nonzero;fill:#bc9c22;fill-opacity:1;" d="M 8.878906 24.375 C 8.855469 24.054688 8.839844 23.734375 8.839844 23.410156 C 8.839844 22.089844 9.039062 20.820312 9.402344 19.625 C 9.898438 21.027344 11.648438 22.046875 12.867188 22.757812 C 13.222656 22.964844 13.589844 23.160156 13.929688 23.386719 C 14.582031 23.21875 15.226562 23.027344 15.863281 22.828125 C 15.738281 22.484375 15.679688 22.035156 15.753906 21.800781 C 15.929688 21.214844 16.476562 21.367188 16.992188 21.324219 C 18.667969 21.179688 18.152344 18.476562 18.898438 17.472656 C 19.445312 16.738281 20.550781 16.292969 20.554688 15.375 C 20.558594 14.617188 19.746094 14.046875 19.730469 13.289062 C 19.730469 13.210938 19.738281 13.136719 19.75 13.058594 C 19.792969 12.769531 19.910156 12.484375 19.886719 12.191406 C 19.84375 11.601562 19.296875 11.1875 18.847656 10.757812 C 19.808594 10.53125 20.8125 10.410156 21.84375 10.410156 C 23.179688 10.410156 24.472656 10.613281 25.683594 10.988281 C 25.34375 11.925781 26.09375 13.53125 26.925781 14.0625 C 27.550781 14.457031 28.429688 14.613281 28.710938 15.296875 C 28.757812 15.421875 28.78125 15.542969 28.785156 15.664062 C 29.929688 14.671875 31.003906 13.609375 32.003906 12.472656 C 32.148438 12.308594 32.25 12.191406 32.34375 12.109375 C 29.589844 9.546875 25.898438 7.980469 21.84375 7.980469 C 13.320312 7.980469 6.414062 14.890625 6.414062 23.410156 C 6.414062 23.820312 6.429688 24.226562 6.460938 24.628906 C 7.273438 24.566406 8.078125 24.480469 8.878906 24.375 Z M 8.878906 24.375 "/></g><g clip-rule="nonzero" clip-path="url(#8f9731c724)"><path style=" stroke:none;fill-rule:nonzero;fill:#bc9c22;fill-opacity:1;" d="M 35.304688 22.386719 C 35.195312 22.453125 35.113281 22.5 35.078125 22.519531 C 32.546875 24.070312 29.832031 25.347656 26.992188 26.34375 C 26.980469 26.46875 26.976562 26.597656 27 26.722656 C 27.128906 27.441406 27.832031 28.050781 28.558594 28.074219 C 28.894531 28.085938 29.273438 28.007812 29.535156 28.21875 C 29.691406 28.351562 29.757812 28.554688 29.8125 28.75 C 30.164062 30.035156 30.261719 31.386719 30.09375 32.703125 C 30.058594 32.96875 30.019531 33.238281 30.035156 33.503906 C 27.796875 35.320312 24.949219 36.410156 21.84375 36.410156 C 21.222656 36.410156 20.609375 36.367188 20.011719 36.28125 C 20.019531 36.171875 20.027344 36.0625 20.042969 35.957031 C 20.128906 35.414062 20.414062 34.90625 20.832031 34.554688 C 21.109375 34.320312 21.476562 34.089844 21.484375 33.726562 C 21.496094 33.335938 21.089844 33.09375 20.820312 32.8125 C 20.289062 32.265625 20.226562 31.398438 20.683594 30.820312 C 21.285156 30.066406 21.851562 29.28125 22.417969 28.492188 C 22.609375 28.226562 22.8125 27.921875 22.765625 27.597656 C 22.765625 27.59375 22.761719 27.59375 22.761719 27.589844 C 20.332031 28.175781 17.839844 28.558594 15.316406 28.730469 C 14.714844 28.769531 14.117188 28.796875 13.523438 28.816406 C 13.46875 29.363281 13.511719 29.925781 13.667969 30.421875 C 14.007812 31.488281 14.933594 32.308594 15.984375 32.695312 C 16.261719 32.796875 16.554688 32.871094 16.785156 33.050781 C 17.019531 33.234375 17.179688 33.554688 17.066406 33.824219 C 17 33.988281 16.84375 34.121094 16.84375 34.296875 C 16.84375 34.417969 16.917969 34.527344 16.984375 34.625 C 17.117188 34.804688 17.359375 35.234375 17.652344 35.71875 C 14.242188 34.558594 11.472656 32.019531 10 28.769531 C 9.59375 28.75 9.1875 28.722656 8.789062 28.6875 L 8.730469 28.683594 C 8.320312 28.648438 7.820312 28.601562 7.285156 28.527344 C 9.394531 34.53125 15.117188 38.839844 21.84375 38.839844 C 30.363281 38.839844 37.273438 31.929688 37.273438 23.410156 C 37.273438 22.683594 37.21875 21.964844 37.125 21.265625 C 36.769531 21.53125 36.199219 21.871094 35.304688 22.386719 Z M 35.304688 22.386719 "/></g><g clip-rule="nonzero" clip-path="url(#d421c096ca)"><path style=" stroke:none;fill-rule:nonzero;fill:#bc9c22;fill-opacity:1;" d="M 27.269531 17.617188 C 27.105469 17.550781 20.9375 23.574219 8.65625 25.027344 C 7.933594 25.113281 5.730469 25.355469 5.132812 25.246094 C 4.453125 25.121094 3.886719 24.710938 4.558594 23.507812 C 4.101562 24.054688 3.550781 24.5 3.546875 25.289062 C 3.523438 27.648438 7.148438 27.9375 8.839844 28.082031 C 10.980469 28.265625 14 28.0625 16.117188 27.699219 C 21.269531 26.808594 23.933594 25.183594 30.121094 22.082031 C 30.121094 22.082031 30.121094 20.269531 30.121094 18.902344 C 30.117188 18.898438 28.949219 18.300781 27.269531 17.617188 Z M 27.269531 17.617188 "/></g><path style=" stroke:none;fill-rule:nonzero;fill:#bc9c22;fill-opacity:1;" d="M 43.777344 10.496094 C 43.34375 9.808594 41.550781 10.152344 40.863281 10.582031 L 40.121094 11.050781 L 32.738281 9.273438 C 32.523438 9.210938 32.28125 9.25 32.074219 9.378906 C 31.644531 9.648438 31.546875 10.199219 31.882812 10.484375 L 35.75 13.539062 L 31.742188 17.023438 L 29.851562 16.230469 C 29.628906 16.136719 29.378906 16.15625 29.171875 16.285156 L 28.507812 16.703125 C 28.351562 16.800781 28.359375 17.03125 28.523438 17.117188 L 30.988281 18.464844 L 31.105469 21.234375 C 31.113281 21.417969 31.316406 21.523438 31.46875 21.425781 L 32.136719 21.007812 C 32.339844 20.878906 32.46875 20.660156 32.480469 20.421875 L 32.582031 18.535156 L 37.277344 16.320312 L 38.492188 21.921875 C 38.605469 22.347656 39.140625 22.503906 39.570312 22.230469 C 39.777344 22.105469 39.917969 21.898438 39.953125 21.683594 L 41.6875 13.550781 L 42.433594 13.085938 C 43.121094 12.652344 44.207031 11.183594 43.777344 10.496094 Z M 42.332031 12.535156 C 42.476562 11.324219 41.277344 10.84375 41.277344 10.84375 C 41.277344 10.84375 42.503906 10.273438 42.945312 10.980469 C 43.410156 11.726562 42.332031 12.535156 42.332031 12.535156 Z M 42.332031 12.535156 "/></g></svg>