<svg xmlns="http://www.w3.org/2000/svg" xmlns:xlink="http://www.w3.org/1999/xlink" width="500" zoomAndPan="magnify" viewBox="0 0 375 149.999998" height="200" preserveAspectRatio="xMidYMid meet" version="1.2"><defs><clipPath id="bd86553afc"><path d="M 297 43.292969 L 348 43.292969 L 348 76 L 297 76 Z M 297 43.292969 "/></clipPath><clipPath id="db38109b0f"><path d="M 299 68 L 357 68 L 357 102.542969 L 299 102.542969 Z M 299 68 "/></clipPath><clipPath id="6e4a26339d"><path d="M 292.058594 61 L 344 61 L 344 82 L 292.058594 82 Z M 292.058594 61 "/></clipPath></defs><g id="3ad385fc18"><g style="fill:#000000;fill-opacity:1;"><g transform="translate(5.814782, 100.32936)"><path style="stroke:none" d="M 28.84375 -33.15625 L 53.28125 -33.15625 L 53.28125 -2.640625 C 46.644531 -0.359375 39.351562 0.78125 31.40625 0.78125 C 22.675781 0.78125 15.929688 -1.75 11.171875 -6.8125 C 6.410156 -11.875 4.03125 -19.09375 4.03125 -28.46875 C 4.03125 -37.601562 6.632812 -44.710938 11.84375 -49.796875 C 17.0625 -54.890625 24.367188 -57.4375 33.765625 -57.4375 C 37.328125 -57.4375 40.691406 -57.097656 43.859375 -56.421875 C 47.023438 -55.753906 49.78125 -54.90625 52.125 -53.875 L 47.28125 -41.859375 C 43.207031 -43.878906 38.726562 -44.890625 33.84375 -44.890625 C 29.375 -44.890625 25.921875 -43.4375 23.484375 -40.53125 C 21.046875 -37.625 19.828125 -33.472656 19.828125 -28.078125 C 19.828125 -22.785156 20.929688 -18.75 23.140625 -15.96875 C 25.347656 -13.195312 28.53125 -11.8125 32.6875 -11.8125 C 34.957031 -11.8125 37.046875 -12.03125 38.953125 -12.46875 L 38.953125 -21.34375 L 28.84375 -21.34375 Z M 28.84375 -33.15625 "/></g></g><g style="fill:#000000;fill-opacity:1;"><g transform="translate(64.520432, 100.32936)"><path style="stroke:none" d="M 54.640625 0 L 39.265625 0 L 39.265625 -23.078125 L 21.5 -23.078125 L 21.5 0 L 6.125 0 L 6.125 -56.625 L 21.5 -56.625 L 21.5 -35.625 L 39.265625 -35.625 L 39.265625 -56.625 L 54.640625 -56.625 Z M 54.640625 0 "/></g></g><g style="fill:#000000;fill-opacity:1;"><g transform="translate(125.278467, 100.32936)"><path style="stroke:none" d="M 54.25 -56.625 L 54.25 -22.53125 C 54.25 -15.125 52.148438 -9.382812 47.953125 -5.3125 C 43.765625 -1.25 37.71875 0.78125 29.8125 0.78125 C 22.09375 0.78125 16.160156 -1.191406 12.015625 -5.140625 C 7.878906 -9.097656 5.8125 -14.78125 5.8125 -22.1875 L 5.8125 -56.625 L 21.1875 -56.625 L 21.1875 -23.390625 C 21.1875 -19.390625 21.929688 -16.484375 23.421875 -14.671875 C 24.921875 -12.867188 27.128906 -11.96875 30.046875 -11.96875 C 33.171875 -11.96875 35.4375 -12.863281 36.84375 -14.65625 C 38.25 -16.445312 38.953125 -19.382812 38.953125 -23.46875 L 38.953125 -56.625 Z M 54.25 -56.625 "/></g></g><g style="fill:#000000;fill-opacity:1;"><g transform="translate(185.300735, 100.32936)"><path style="stroke:none" d="M 21.421875 -20.609375 L 21.421875 0 L 6.125 0 L 6.125 -56.625 L 24.671875 -56.625 C 40.054688 -56.625 47.75 -51.046875 47.75 -39.890625 C 47.75 -33.328125 44.546875 -28.253906 38.140625 -24.671875 L 54.640625 0 L 37.296875 0 L 25.28125 -20.609375 Z M 21.421875 -32.109375 L 24.28125 -32.109375 C 29.625 -32.109375 32.296875 -34.46875 32.296875 -39.1875 C 32.296875 -43.09375 29.675781 -45.046875 24.4375 -45.046875 L 21.421875 -45.046875 Z M 21.421875 -32.109375 "/></g></g><g style="fill:#000000;fill-opacity:1;"><g transform="translate(238.97226, 100.32936)"><path style="stroke:none" d="M 6.125 -56.625 L 25.875 -56.625 C 33.5625 -56.625 39.269531 -55.476562 43 -53.1875 C 46.738281 -50.90625 48.609375 -47.347656 48.609375 -42.515625 C 48.609375 -39.347656 47.789062 -36.640625 46.15625 -34.390625 C 44.53125 -32.140625 42.390625 -30.691406 39.734375 -30.046875 L 39.734375 -29.671875 C 43.242188 -28.734375 45.785156 -27.179688 47.359375 -25.015625 C 48.929688 -22.847656 49.71875 -20.035156 49.71875 -16.578125 C 49.71875 -11.441406 47.785156 -7.394531 43.921875 -4.4375 C 40.066406 -1.476562 34.8125 0 28.15625 0 L 6.125 0 Z M 21.421875 -34.890625 L 26.03125 -34.890625 C 28.21875 -34.890625 29.910156 -35.34375 31.109375 -36.25 C 32.316406 -37.15625 32.921875 -38.5 32.921875 -40.28125 C 32.921875 -43.457031 30.519531 -45.046875 25.71875 -45.046875 L 21.421875 -45.046875 Z M 21.421875 -23.703125 L 21.421875 -11.8125 L 26.796875 -11.8125 C 31.578125 -11.8125 33.96875 -13.828125 33.96875 -17.859375 C 33.96875 -19.742188 33.328125 -21.1875 32.046875 -22.1875 C 30.765625 -23.195312 28.910156 -23.703125 26.484375 -23.703125 Z M 21.421875 -23.703125 "/></g></g><g clip-rule="nonzero" clip-path="url(#bd86553afc)"><path style=" stroke:none;fill-rule:nonzero;fill:#000000;fill-opacity:1;" d="M 302.332031 74.714844 C 302.285156 74.105469 302.261719 73.484375 302.261719 72.863281 C 302.261719 70.339844 302.636719 67.90625 303.335938 65.609375 C 304.289062 68.296875 307.640625 70.25 309.976562 71.613281 C 310.65625 72.015625 311.359375 72.386719 312.015625 72.824219 C 313.265625 72.496094 314.5 72.136719 315.722656 71.746094 C 315.484375 71.089844 315.371094 70.234375 315.507812 69.78125 C 315.847656 68.65625 316.898438 68.949219 317.878906 68.867188 C 321.097656 68.585938 320.105469 63.410156 321.539062 61.488281 C 322.585938 60.078125 324.703125 59.222656 324.710938 57.46875 C 324.714844 56.015625 323.160156 54.921875 323.132812 53.46875 C 323.128906 53.320312 323.140625 53.175781 323.164062 53.03125 C 323.25 52.472656 323.472656 51.925781 323.433594 51.363281 C 323.351562 50.238281 322.300781 49.445312 321.4375 48.617188 C 323.28125 48.183594 325.203125 47.949219 327.175781 47.949219 C 329.738281 47.949219 332.214844 48.339844 334.542969 49.058594 C 333.886719 50.859375 335.324219 53.9375 336.917969 54.949219 C 338.117188 55.710938 339.804688 56.007812 340.339844 57.320312 C 340.433594 57.554688 340.476562 57.789062 340.484375 58.019531 C 342.671875 56.121094 344.730469 54.082031 346.648438 51.902344 C 346.929688 51.589844 347.125 51.363281 347.300781 51.207031 C 342.023438 46.300781 334.953125 43.296875 327.175781 43.296875 C 310.847656 43.296875 297.609375 56.535156 297.609375 72.863281 C 297.609375 73.652344 297.640625 74.429688 297.699219 75.199219 C 299.257812 75.078125 300.800781 74.917969 302.332031 74.714844 Z M 302.332031 74.714844 "/></g><g clip-rule="nonzero" clip-path="url(#db38109b0f)"><path style=" stroke:none;fill-rule:nonzero;fill:#000000;fill-opacity:1;" d="M 352.980469 70.90625 C 352.765625 71.03125 352.613281 71.121094 352.542969 71.164062 C 347.6875 74.128906 342.488281 76.582031 337.050781 78.484375 C 337.023438 78.730469 337.019531 78.972656 337.066406 79.214844 C 337.308594 80.589844 338.660156 81.761719 340.050781 81.804688 C 340.695312 81.828125 341.421875 81.675781 341.917969 82.082031 C 342.21875 82.332031 342.347656 82.726562 342.453125 83.101562 C 343.125 85.558594 343.3125 88.148438 342.992188 90.675781 C 342.925781 91.183594 342.84375 91.703125 342.875 92.210938 C 338.589844 95.691406 333.128906 97.78125 327.179688 97.78125 C 325.988281 97.78125 324.816406 97.695312 323.671875 97.53125 C 323.683594 97.324219 323.703125 97.117188 323.730469 96.910156 C 323.890625 95.871094 324.4375 94.898438 325.242188 94.21875 C 325.773438 93.773438 326.476562 93.335938 326.496094 92.640625 C 326.511719 91.890625 325.738281 91.421875 325.214844 90.882812 C 324.199219 89.839844 324.078125 88.175781 324.957031 87.066406 C 326.105469 85.625 327.199219 84.117188 328.277344 82.609375 C 328.644531 82.097656 329.035156 81.515625 328.945312 80.890625 C 328.945312 80.882812 328.941406 80.882812 328.941406 80.875 C 324.285156 81.996094 319.507812 82.730469 314.671875 83.058594 C 313.519531 83.136719 312.375 83.191406 311.234375 83.222656 C 311.125 84.273438 311.210938 85.351562 311.515625 86.300781 C 312.164062 88.347656 313.933594 89.917969 315.949219 90.65625 C 316.480469 90.851562 317.042969 91 317.488281 91.34375 C 317.9375 91.691406 318.238281 92.304688 318.023438 92.828125 C 317.898438 93.136719 317.601562 93.394531 317.597656 93.730469 C 317.59375 93.960938 317.738281 94.167969 317.871094 94.355469 C 318.117188 94.703125 318.585938 95.527344 319.144531 96.457031 C 312.613281 94.230469 307.304688 89.367188 304.480469 83.136719 C 303.699219 83.097656 302.925781 83.042969 302.160156 82.976562 L 302.046875 82.96875 C 301.265625 82.902344 300.304688 82.816406 299.277344 82.671875 C 303.320312 94.179688 314.285156 102.433594 327.179688 102.433594 C 343.507812 102.433594 356.746094 89.195312 356.746094 72.863281 C 356.746094 71.472656 356.648438 70.097656 356.460938 68.757812 C 355.785156 69.265625 354.695312 69.917969 352.980469 70.90625 Z M 352.980469 70.90625 "/></g><g clip-rule="nonzero" clip-path="url(#6e4a26339d)"><path style=" stroke:none;fill-rule:nonzero;fill:#000000;fill-opacity:1;" d="M 337.578125 61.761719 C 337.261719 61.636719 325.445312 73.183594 301.910156 75.964844 C 300.523438 76.128906 296.296875 76.589844 295.152344 76.382812 C 293.851562 76.144531 292.765625 75.355469 294.050781 73.054688 C 293.179688 74.101562 292.125 74.953125 292.113281 76.46875 C 292.070312 80.992188 299.019531 81.539062 302.257812 81.816406 C 306.359375 82.171875 312.148438 81.785156 316.203125 81.085938 C 326.082031 79.375 331.183594 76.265625 343.042969 70.316406 C 343.042969 70.316406 343.046875 66.847656 343.042969 64.226562 C 343.035156 64.222656 340.800781 63.074219 337.578125 61.761719 Z M 337.578125 61.761719 "/></g><path style=" stroke:none;fill-rule:nonzero;fill:#000000;fill-opacity:1;" d="M 369.210938 48.121094 C 368.382812 46.800781 364.949219 47.457031 363.628906 48.285156 L 362.203125 49.179688 L 348.054688 45.773438 C 347.648438 45.652344 347.179688 45.730469 346.785156 45.976562 C 345.960938 46.492188 345.777344 47.542969 346.417969 48.097656 L 353.828125 53.945312 L 346.152344 60.628906 L 342.53125 59.105469 C 342.101562 58.925781 341.617188 58.964844 341.226562 59.210938 L 339.953125 60.011719 C 339.652344 60.199219 339.667969 60.636719 339.980469 60.804688 L 344.707031 63.390625 L 344.925781 68.695312 C 344.941406 69.046875 345.332031 69.25 345.628906 69.0625 L 346.90625 68.261719 C 347.296875 68.019531 347.542969 67.597656 347.566406 67.136719 L 347.753906 63.523438 L 356.757812 59.277344 L 359.085938 70.015625 C 359.300781 70.832031 360.324219 71.125 361.152344 70.609375 C 361.546875 70.363281 361.820312 69.972656 361.886719 69.554688 L 365.207031 53.972656 L 366.636719 53.078125 C 367.953125 52.25 370.039062 49.4375 369.210938 48.121094 Z M 366.445312 52.023438 C 366.722656 49.703125 364.425781 48.785156 364.425781 48.785156 C 364.425781 48.785156 366.773438 47.6875 367.621094 49.042969 C 368.515625 50.472656 366.445312 52.023438 366.445312 52.023438 Z M 366.445312 52.023438 "/><g style="fill:#000000;fill-opacity:1;"><g transform="translate(85.232875, 122.985806)"><path style="stroke:none" d="M 6.0625 0 L 3.078125 0 L 3.078125 -8.609375 L 0.390625 -8.609375 L 0.390625 -11.046875 L 8.75 -11.046875 L 8.75 -8.609375 L 6.0625 -8.609375 Z M 6.0625 0 "/></g></g><g style="fill:#000000;fill-opacity:1;"><g transform="translate(94.362529, 122.985806)"><path style="stroke:none" d="M 11.53125 -5.53125 C 11.53125 -3.675781 11.070312 -2.265625 10.15625 -1.296875 C 9.25 -0.328125 7.914062 0.15625 6.15625 0.15625 C 4.425781 0.15625 3.097656 -0.328125 2.171875 -1.296875 C 1.242188 -2.273438 0.78125 -3.691406 0.78125 -5.546875 C 0.78125 -7.390625 1.238281 -8.796875 2.15625 -9.765625 C 3.082031 -10.734375 4.421875 -11.21875 6.171875 -11.21875 C 7.929688 -11.21875 9.265625 -10.734375 10.171875 -9.765625 C 11.078125 -8.804688 11.53125 -7.394531 11.53125 -5.53125 Z M 3.921875 -5.53125 C 3.921875 -3.394531 4.664062 -2.328125 6.15625 -2.328125 C 6.90625 -2.328125 7.460938 -2.585938 7.828125 -3.109375 C 8.203125 -3.628906 8.390625 -4.4375 8.390625 -5.53125 C 8.390625 -6.632812 8.203125 -7.445312 7.828125 -7.96875 C 7.460938 -8.5 6.910156 -8.765625 6.171875 -8.765625 C 4.671875 -8.765625 3.921875 -7.6875 3.921875 -5.53125 Z M 3.921875 -5.53125 "/></g></g><g style="fill:#000000;fill-opacity:1;"><g transform="translate(106.676245, 122.985806)"><path style="stroke:none" d="M 10.578125 -11.046875 L 10.578125 -4.390625 C 10.578125 -2.953125 10.164062 -1.832031 9.34375 -1.03125 C 8.53125 -0.238281 7.351562 0.15625 5.8125 0.15625 C 4.3125 0.15625 3.15625 -0.226562 2.34375 -1 C 1.539062 -1.769531 1.140625 -2.878906 1.140625 -4.328125 L 1.140625 -11.046875 L 4.125 -11.046875 L 4.125 -4.5625 C 4.125 -3.78125 4.269531 -3.210938 4.5625 -2.859375 C 4.851562 -2.503906 5.285156 -2.328125 5.859375 -2.328125 C 6.472656 -2.328125 6.914062 -2.503906 7.1875 -2.859375 C 7.457031 -3.210938 7.59375 -3.785156 7.59375 -4.578125 L 7.59375 -11.046875 Z M 10.578125 -11.046875 "/></g></g><g style="fill:#000000;fill-opacity:1;"><g transform="translate(118.371256, 122.985806)"><path style="stroke:none" d="M 4.171875 -4.015625 L 4.171875 0 L 1.1875 0 L 1.1875 -11.046875 L 4.8125 -11.046875 C 7.8125 -11.046875 9.3125 -9.957031 9.3125 -7.78125 C 9.3125 -6.5 8.6875 -5.507812 7.4375 -4.8125 L 10.65625 0 L 7.28125 0 L 4.9375 -4.015625 Z M 4.171875 -6.265625 L 4.734375 -6.265625 C 5.773438 -6.265625 6.296875 -6.722656 6.296875 -7.640625 C 6.296875 -8.398438 5.785156 -8.78125 4.765625 -8.78125 L 4.171875 -8.78125 Z M 4.171875 -6.265625 "/></g></g><g style="fill:#000000;fill-opacity:1;"><g transform="translate(128.82886, 122.985806)"><path style="stroke:none" d=""/></g></g><g style="fill:#000000;fill-opacity:1;"><g transform="translate(132.84289, 122.985806)"><path style="stroke:none" d="M 9.203125 -7.53125 C 9.203125 -6.300781 8.835938 -5.347656 8.109375 -4.671875 C 7.390625 -3.992188 6.359375 -3.65625 5.015625 -3.65625 L 4.171875 -3.65625 L 4.171875 0 L 1.1875 0 L 1.1875 -11.046875 L 5.015625 -11.046875 C 6.410156 -11.046875 7.457031 -10.738281 8.15625 -10.125 C 8.851562 -9.519531 9.203125 -8.65625 9.203125 -7.53125 Z M 4.171875 -6.09375 L 4.71875 -6.09375 C 5.164062 -6.09375 5.519531 -6.21875 5.78125 -6.46875 C 6.050781 -6.71875 6.1875 -7.066406 6.1875 -7.515625 C 6.1875 -8.265625 5.773438 -8.640625 4.953125 -8.640625 L 4.171875 -8.640625 Z M 4.171875 -6.09375 "/></g></g><g style="fill:#000000;fill-opacity:1;"><g transform="translate(142.606338, 122.985806)"><path style="stroke:none" d="M 1.1875 0 L 1.1875 -11.046875 L 4.171875 -11.046875 L 4.171875 -2.40625 L 8.421875 -2.40625 L 8.421875 0 Z M 1.1875 0 "/></g></g><g style="fill:#000000;fill-opacity:1;"><g transform="translate(151.600179, 122.985806)"><path style="stroke:none" d="M 7.96875 0 L 7.421875 -2.0625 L 3.84375 -2.0625 L 3.28125 0 L 0 0 L 3.609375 -11.09375 L 7.578125 -11.09375 L 11.234375 0 Z M 6.8125 -4.515625 L 6.328125 -6.328125 C 6.210938 -6.734375 6.078125 -7.253906 5.921875 -7.890625 C 5.765625 -8.535156 5.660156 -8.992188 5.609375 -9.265625 C 5.566406 -9.003906 5.476562 -8.578125 5.34375 -7.984375 C 5.207031 -7.398438 4.910156 -6.242188 4.453125 -4.515625 Z M 6.8125 -4.515625 "/></g></g><g style="fill:#000000;fill-opacity:1;"><g transform="translate(162.819853, 122.985806)"><path style="stroke:none" d="M 11.703125 0 L 7.796875 0 L 3.765625 -7.78125 L 3.6875 -7.78125 C 3.789062 -6.550781 3.84375 -5.617188 3.84375 -4.984375 L 3.84375 0 L 1.1875 0 L 1.1875 -11.046875 L 5.09375 -11.046875 L 9.109375 -3.375 L 9.15625 -3.375 C 9.082031 -4.476562 9.046875 -5.367188 9.046875 -6.046875 L 9.046875 -11.046875 L 11.703125 -11.046875 Z M 11.703125 0 "/></g></g><g style="fill:#000000;fill-opacity:1;"><g transform="translate(175.707001, 122.985806)"><path style="stroke:none" d="M 11.703125 0 L 7.796875 0 L 3.765625 -7.78125 L 3.6875 -7.78125 C 3.789062 -6.550781 3.84375 -5.617188 3.84375 -4.984375 L 3.84375 0 L 1.1875 0 L 1.1875 -11.046875 L 5.09375 -11.046875 L 9.109375 -3.375 L 9.15625 -3.375 C 9.082031 -4.476562 9.046875 -5.367188 9.046875 -6.046875 L 9.046875 -11.046875 L 11.703125 -11.046875 Z M 11.703125 0 "/></g></g><g style="fill:#000000;fill-opacity:1;"><g transform="translate(188.594149, 122.985806)"><path style="stroke:none" d="M 7.75 0 L 1.1875 0 L 1.1875 -11.046875 L 7.75 -11.046875 L 7.75 -8.640625 L 4.171875 -8.640625 L 4.171875 -6.90625 L 7.484375 -6.90625 L 7.484375 -4.515625 L 4.171875 -4.515625 L 4.171875 -2.4375 L 7.75 -2.4375 Z M 7.75 0 "/></g></g><g style="fill:#000000;fill-opacity:1;"><g transform="translate(197.074919, 122.985806)"><path style="stroke:none" d="M 4.171875 -4.015625 L 4.171875 0 L 1.1875 0 L 1.1875 -11.046875 L 4.8125 -11.046875 C 7.8125 -11.046875 9.3125 -9.957031 9.3125 -7.78125 C 9.3125 -6.5 8.6875 -5.507812 7.4375 -4.8125 L 10.65625 0 L 7.28125 0 L 4.9375 -4.015625 Z M 4.171875 -6.265625 L 4.734375 -6.265625 C 5.773438 -6.265625 6.296875 -6.722656 6.296875 -7.640625 C 6.296875 -8.398438 5.785156 -8.78125 4.765625 -8.78125 L 4.171875 -8.78125 Z M 4.171875 -6.265625 "/></g></g><g style="fill:#000000;fill-opacity:1;"><g transform="translate(207.532523, 122.985806)"><path style="stroke:none" d=""/></g></g><g style="fill:#000000;fill-opacity:1;"><g transform="translate(211.546553, 122.985806)"><path style="stroke:none" d="M 7.96875 0 L 7.421875 -2.0625 L 3.84375 -2.0625 L 3.28125 0 L 0 0 L 3.609375 -11.09375 L 7.578125 -11.09375 L 11.234375 0 Z M 6.8125 -4.515625 L 6.328125 -6.328125 C 6.210938 -6.734375 6.078125 -7.253906 5.921875 -7.890625 C 5.765625 -8.535156 5.660156 -8.992188 5.609375 -9.265625 C 5.566406 -9.003906 5.476562 -8.578125 5.34375 -7.984375 C 5.207031 -7.398438 4.910156 -6.242188 4.453125 -4.515625 Z M 6.8125 -4.515625 "/></g></g><g style="fill:#000000;fill-opacity:1;"><g transform="translate(222.766226, 122.985806)"><path style="stroke:none" d="M 5.625 -6.46875 L 10.390625 -6.46875 L 10.390625 -0.515625 C 9.097656 -0.0664062 7.675781 0.15625 6.125 0.15625 C 4.425781 0.15625 3.109375 -0.335938 2.171875 -1.328125 C 1.242188 -2.316406 0.78125 -3.722656 0.78125 -5.546875 C 0.78125 -7.328125 1.289062 -8.710938 2.3125 -9.703125 C 3.332031 -10.703125 4.757812 -11.203125 6.59375 -11.203125 C 7.28125 -11.203125 7.929688 -11.132812 8.546875 -11 C 9.171875 -10.875 9.710938 -10.707031 10.171875 -10.5 L 9.21875 -8.171875 C 8.425781 -8.554688 7.550781 -8.75 6.59375 -8.75 C 5.726562 -8.75 5.054688 -8.460938 4.578125 -7.890625 C 4.109375 -7.328125 3.875 -6.519531 3.875 -5.46875 C 3.875 -4.4375 4.085938 -3.648438 4.515625 -3.109375 C 4.941406 -2.566406 5.5625 -2.296875 6.375 -2.296875 C 6.820312 -2.296875 7.226562 -2.34375 7.59375 -2.4375 L 7.59375 -4.15625 L 5.625 -4.15625 Z M 5.625 -6.46875 "/></g></g><g style="fill:#000000;fill-opacity:1;"><g transform="translate(234.204702, 122.985806)"><path style="stroke:none" d="M 7.75 0 L 1.1875 0 L 1.1875 -11.046875 L 7.75 -11.046875 L 7.75 -8.640625 L 4.171875 -8.640625 L 4.171875 -6.90625 L 7.484375 -6.90625 L 7.484375 -4.515625 L 4.171875 -4.515625 L 4.171875 -2.4375 L 7.75 -2.4375 Z M 7.75 0 "/></g></g><g style="fill:#000000;fill-opacity:1;"><g transform="translate(242.685472, 122.985806)"><path style="stroke:none" d="M 11.703125 0 L 7.796875 0 L 3.765625 -7.78125 L 3.6875 -7.78125 C 3.789062 -6.550781 3.84375 -5.617188 3.84375 -4.984375 L 3.84375 0 L 1.1875 0 L 1.1875 -11.046875 L 5.09375 -11.046875 L 9.109375 -3.375 L 9.15625 -3.375 C 9.082031 -4.476562 9.046875 -5.367188 9.046875 -6.046875 L 9.046875 -11.046875 L 11.703125 -11.046875 Z M 11.703125 0 "/></g></g><g style="fill:#000000;fill-opacity:1;"><g transform="translate(255.57262, 122.985806)"><path style="stroke:none" d="M 6.109375 -8.75 C 5.398438 -8.75 4.847656 -8.457031 4.453125 -7.875 C 4.054688 -7.300781 3.859375 -6.5 3.859375 -5.46875 C 3.859375 -3.34375 4.664062 -2.28125 6.28125 -2.28125 C 6.769531 -2.28125 7.242188 -2.347656 7.703125 -2.484375 C 8.160156 -2.628906 8.617188 -2.796875 9.078125 -2.984375 L 9.078125 -0.453125 C 8.160156 -0.046875 7.117188 0.15625 5.953125 0.15625 C 4.285156 0.15625 3.003906 -0.328125 2.109375 -1.296875 C 1.222656 -2.265625 0.78125 -3.660156 0.78125 -5.484375 C 0.78125 -6.628906 0.992188 -7.632812 1.421875 -8.5 C 1.859375 -9.363281 2.476562 -10.03125 3.28125 -10.5 C 4.09375 -10.96875 5.046875 -11.203125 6.140625 -11.203125 C 7.335938 -11.203125 8.476562 -10.941406 9.5625 -10.421875 L 8.640625 -8.078125 C 8.234375 -8.265625 7.828125 -8.421875 7.421875 -8.546875 C 7.015625 -8.679688 6.578125 -8.75 6.109375 -8.75 Z M 6.109375 -8.75 "/></g></g><g style="fill:#000000;fill-opacity:1;"><g transform="translate(265.600157, 122.985806)"><path style="stroke:none" d="M 5.140625 -6.953125 L 7.046875 -11.046875 L 10.265625 -11.046875 L 6.640625 -4.3125 L 6.640625 0 L 3.640625 0 L 3.640625 -4.21875 L 0 -11.046875 L 3.25 -11.046875 Z M 5.140625 -6.953125 "/></g></g></g></svg>